<svg id="Layer_3" data-name="Layer 3" xmlns="http://www.w3.org/2000/svg" viewBox="0 0 342.83 342.83"><defs><style>.cls-1,.cls-3{fill:#fff;}.cls-1{stroke:#1e439b;}.cls-1,.cls-10,.cls-2,.cls-3,.cls-6,.cls-7{stroke-miterlimit:10;}.cls-1,.cls-10{stroke-width:10px;}.cls-10,.cls-2,.cls-6,.cls-7{fill:none;}.cls-2,.cls-3{stroke:#da1c5c;stroke-linecap:round;}.cls-2,.cls-3,.cls-6{stroke-width:4px;}.cls-4{fill:#fcb325;}.cls-5,.cls-9{fill:#1e439b;}.cls-6{stroke:#fcb325;}.cls-7{stroke:#231f20;stroke-width:5px;}.cls-8{font-size:21px;fill:#21409a;}.cls-8,.cls-9{font-family:Bitter-Bold, Bitter Bold;font-weight:700;}.cls-9{font-size:24.17px;}.cls-10{stroke:#1e4698;}</style></defs><title>LAMP</title><circle class="cls-1" cx="171.42" cy="171.42" r="166.42"/><path class="cls-2" d="M299.14,330.81c-9-3.85-21.13-4.95-27.75,3.87-3.31,5.51-2.2,11-1.1,16.53,2.2,6.62,8.82,12.13,7.07,21.42" transform="translate(-134.58 -224.58)"/><line class="cls-3" x1="143.2" y1="138.76" x2="149.93" y2="136.88"/><path class="cls-2" d="M266.62,390.78s8.1,7.16,21.47-5.79" transform="translate(-134.58 -224.58)"/><path class="cls-2" d="M274.12,427.26s7.58,7.58,19.09-6.39" transform="translate(-134.58 -224.58)"/><path class="cls-2" d="M269.26,346.64s-24.8-2.13-25.56,20.54c0,1.79-1.2,14.4,16,20.11" transform="translate(-134.58 -224.58)"/><path class="cls-2" d="M245.29,375.84s-13.57,28.2,8,34.72c5.75.12,18.79,0,18.79,0s3.66,6.9,5.66,7.54" transform="translate(-134.58 -224.58)"/><path class="cls-3" d="M277.36,402.25s-6.39,4.34-5.24,8.31" transform="translate(-134.58 -224.58)"/><path class="cls-2" d="M253.33,410.56s-6.4,17.76,22.75,25.31" transform="translate(-134.58 -224.58)"/><path class="cls-2" d="M270,434a18.19,18.19,0,0,0,7.56,18.95c7.26,4.75,16.26,2.15,23-2.3" transform="translate(-134.58 -224.58)"/><line class="cls-3" x1="146.22" y1="228.27" x2="154.02" y2="218.82"/><polygon class="cls-4" points="209.79 74.5 215.38 76.76 203.88 104.03 198.21 101.6 209.37 74.33 209.79 74.5"/><polygon class="cls-4" points="249.32 107.48 252.98 112.27 229.18 129.86 225.54 124.88 249.05 107.12 249.32 107.48"/><polygon class="cls-4" points="263.29 159.6 262.51 165.58 233.22 161.32 234.15 155.23 263.35 159.16 263.29 159.6"/><polyline class="cls-5" points="191.86 241.3 194.16 238.93 194.16 236.25 140.85 236.25 140.85 239.38 142.71 241.3"/><polyline class="cls-5" points="187.37 247.2 189.24 245.31 189.24 243.17 145.97 243.17 145.97 245.67 147.47 247.2"/><polyline class="cls-5" points="184.15 253.34 185.72 251.45 185.72 249.31 149.29 249.31 149.29 251.81 150.56 253.34"/><path class="cls-5" d="M291,480.16h22.3s.32,10.14-11.25,10.14S291,480.16,291,480.16Z" transform="translate(-134.58 -224.58)"/><path class="cls-6" d="M298.24,330.79l2.38,119.82s16.53,14.83,25.4-5.11c4.14-11.37,2.15-14.69,10.33-19.65,4.92-3,11.2-9.56,13.81-14.69,3.36-6.58,5.45-13.52,5.17-25.49C355,370.84,347.66,329.6,298.24,330.79Z" transform="translate(-134.58 -224.58)"/><path class="cls-7" d="M305.05,446.94" transform="translate(-134.58 -224.58)"/><text class="cls-8" transform="matrix(-0.21, 0.98, -0.98, -0.21, 27.61, 133.62)">L</text><text class="cls-8" transform="translate(24.84 147.15) rotate(96.86)">E</text><text class="cls-8" transform="matrix(-0.02, 1, -1, -0.02, 23.28, 161.34)">A</text><text class="cls-8" transform="translate(23.26 178.17) rotate(84.79)">R</text><text class="cls-8" transform="translate(24.81 193.41) rotate(78.38)">N</text><text class="cls-8" transform="translate(28.7 210.77) rotate(72.13)">E</text><text class="cls-8" transform="translate(33.24 224.3) rotate(66.39)">R</text><text class="cls-8" transform="matrix(0.49, 0.87, -0.87, 0.49, 39.52, 238.14)">S</text><text class="cls-8" transform="matrix(0.55, 0.83, -0.83, 0.55, 46.51, 250.09)">’</text><text class="cls-8" transform="matrix(0.59, 0.81, -0.81, 0.59, 49.88, 255.12)"> </text><text class="cls-8" transform="matrix(0.65, 0.76, -0.76, 0.65, 54.69, 261.81)">A</text><text class="cls-8" transform="matrix(0.73, 0.68, -0.68, 0.73, 65.63, 274.21)">C</text><text class="cls-8" transform="matrix(0.8, 0.6, -0.6, 0.8, 77.65, 285.18)">A</text><text class="cls-8" transform="translate(91.32 295.14) rotate(30.01)">D</text><text class="cls-8" transform="translate(107.03 303.85) rotate(23.75)">E</text><text class="cls-8" transform="translate(120.23 309.6) rotate(16.88)">M</text><text class="cls-8" transform="translate(140.3 315.17) rotate(11.08)">I</text><text class="cls-8" transform="translate(148.96 316.85) rotate(6.28)">C</text><text class="cls-8" transform="translate(164.86 318.29) rotate(1.64)"> </text><text class="cls-8" transform="matrix(1, -0.07, 0.07, 1, 173.22, 318.65)">M</text><text class="cls-8" transform="translate(193.93 316.86) rotate(-11.15)">A</text><text class="cls-8" transform="translate(210.47 313.39) rotate(-17.91)">N</text><text class="cls-8" transform="translate(227.41 307.63) rotate(-24.68)">A</text><text class="cls-8" transform="translate(242.38 300.54) rotate(-31.23)">G</text><text class="cls-8" transform="matrix(0.79, -0.61, 0.61, 0.79, 257.22, 291.19)">E</text><text class="cls-8" transform="matrix(0.72, -0.7, 0.7, 0.72, 268.63, 282.42)">M</text><text class="cls-8" transform="translate(283.33 267.53) rotate(-50.94)">E</text><text class="cls-8" transform="translate(292.27 256.33) rotate(-57.13)">N</text><text class="cls-8" transform="matrix(0.45, -0.89, 0.89, 0.45, 301.67, 241.22)">T</text><text class="cls-8" transform="translate(307.8 228.42) rotate(-67.71)"> </text><text class="cls-8" transform="translate(310.9 220.82) rotate(-72.21)">P</text><text class="cls-8" transform="translate(315.42 206.28) rotate(-78.77)">O</text><text class="cls-8" transform="matrix(0.08, -1, 1, 0.08, 318.71, 188.07)">R</text><text class="cls-8" transform="translate(319.74 172.72) rotate(-91.01)">T</text><text class="cls-8" transform="translate(319.46 159.97) rotate(-96.35)">A</text><text class="cls-8" transform="matrix(-0.21, -0.98, 0.98, -0.21, 317.33, 143.3)">L</text><text class="cls-9" transform="translate(102.73 55.99) rotate(-28.07)">C</text><text class="cls-9" transform="matrix(0.94, -0.34, 0.34, 0.94, 118.46, 47.83)">H</text><text class="cls-9" transform="matrix(0.98, -0.21, 0.21, 0.98, 136.94, 41.5)">E</text><text class="cls-9" transform="matrix(1, -0.08, 0.08, 1, 152.25, 38.25)">D</text><text class="cls-9" transform="translate(172.04 36.97) rotate(3.02)">R</text><text class="cls-9" transform="translate(188.82 37.99) rotate(11.02)">O</text><text class="cls-9" transform="translate(208.9 42.45) rotate(17.44)"> </text><text class="cls-9" transform="translate(217.77 45.39) rotate(21.64)">I</text><text class="cls-9" transform="matrix(0.9, 0.44, -0.44, 0.9, 227.01, 49.23)">I</text><text class="cls-9" transform="matrix(0.86, 0.5, -0.5, 0.86, 235.91, 53.74)">I</text><circle class="cls-5" cx="65.86" cy="75.54" r="8"/><circle class="cls-5" cx="280.61" cy="75.54" r="8"/><circle class="cls-10" cx="170.47" cy="170.16" r="115.98"/></svg>