<?xml version="1.0" encoding="UTF-8" standalone="no"?>
<!-- Created with Inkscape (http://www.inkscape.org/) -->

<svg
   xmlns:dc="http://purl.org/dc/elements/1.1/"
   xmlns:cc="http://creativecommons.org/ns#"
   xmlns:rdf="http://www.w3.org/1999/02/22-rdf-syntax-ns#"
   xmlns:svg="http://www.w3.org/2000/svg"
   xmlns="http://www.w3.org/2000/svg"
   xmlns:sodipodi="http://sodipodi.sourceforge.net/DTD/sodipodi-0.dtd"
   xmlns:inkscape="http://www.inkscape.org/namespaces/inkscape"
   width="138.28889mm"
   height="138.28893mm"
   viewBox="0 0 490.00002 490.00013"
   id="svg5037"
   version="1.1"
   inkscape:version="0.91 r13725"
   sodipodi:docname="Commission on Higher Education (CHEd).svg">
  <title
     id="title6144">Commission on Higher Education (CHEd) , Philippines</title>
  <defs
     id="defs5039" />
  <sodipodi:namedview
     id="base"
     pagecolor="#ffffff"
     bordercolor="#666666"
     borderopacity="1.0"
     inkscape:pageopacity="0.0"
     inkscape:pageshadow="2"
     inkscape:zoom="0.51836724"
     inkscape:cx="245"
     inkscape:cy="245.00008"
     inkscape:document-units="px"
     inkscape:current-layer="layer1"
     showgrid="false"
     inkscape:snap-object-midpoints="true"
     inkscape:snap-bbox="true"
     fit-margin-top="0"
     fit-margin-left="0"
     fit-margin-right="0"
     fit-margin-bottom="0"
     inkscape:window-width="1366"
     inkscape:window-height="705"
     inkscape:window-x="-4"
     inkscape:window-y="-4"
     inkscape:window-maximized="1" />
  <metadata
     id="metadata5042">
    <rdf:RDF>
      <cc:Work
         rdf:about="">
        <dc:format>image/svg+xml</dc:format>
        <dc:type
           rdf:resource="http://purl.org/dc/dcmitype/StillImage" />
        <dc:title>Commission on Higher Education (CHEd) , Philippines</dc:title>
      </cc:Work>
    </rdf:RDF>
  </metadata>
  <g
     inkscape:label="Layer 1"
     inkscape:groupmode="layer"
     id="layer1"
     transform="translate(-26.812717,-381.47889)">
    <g
       id="g6225">
      <ellipse
         ry="243.6051"
         rx="243.59499"
         cy="626.47894"
         cx="271.81271"
         id="path5723-7-7"
         style="color:#000000;clip-rule:nonzero;display:inline;overflow:visible;visibility:visible;opacity:1;isolation:auto;mix-blend-mode:normal;color-interpolation:sRGB;color-interpolation-filters:linearRGB;solid-color:#000000;solid-opacity:1;fill:#ffffff;fill-opacity:1;fill-rule:nonzero;stroke:#000000;stroke-width:2.79994106;stroke-linecap:round;stroke-linejoin:round;stroke-miterlimit:4;stroke-dasharray:none;stroke-dashoffset:0;stroke-opacity:1;color-rendering:auto;image-rendering:auto;shape-rendering:auto;text-rendering:auto;enable-background:accumulate" />
      <ellipse
         ry="187.24609"
         rx="188.59712"
         cy="626.47894"
         cx="271.81271"
         id="path5723"
         style="color:#000000;clip-rule:nonzero;display:inline;overflow:visible;visibility:visible;opacity:1;isolation:auto;mix-blend-mode:normal;color-interpolation:sRGB;color-interpolation-filters:linearRGB;solid-color:#000000;solid-opacity:1;fill:#0038a8;fill-opacity:1;fill-rule:nonzero;stroke:none;stroke-width:1.52421665;stroke-linecap:round;stroke-linejoin:round;stroke-miterlimit:4;stroke-dasharray:none;stroke-dashoffset:0;stroke-opacity:1;color-rendering:auto;image-rendering:auto;shape-rendering:auto;text-rendering:auto;enable-background:accumulate" />
      <ellipse
         ry="192.48007"
         rx="193.86887"
         cy="626.47894"
         cx="271.81271"
         id="path5723-7"
         style="color:#000000;clip-rule:nonzero;display:inline;overflow:visible;visibility:visible;opacity:1;isolation:auto;mix-blend-mode:normal;color-interpolation:sRGB;color-interpolation-filters:linearRGB;solid-color:#000000;solid-opacity:1;fill:none;fill-opacity:1;fill-rule:nonzero;stroke:#0038a8;stroke-width:3.54446268;stroke-linecap:round;stroke-linejoin:round;stroke-miterlimit:4;stroke-dasharray:none;stroke-dashoffset:0;stroke-opacity:1;color-rendering:auto;image-rendering:auto;shape-rendering:auto;text-rendering:auto;enable-background:accumulate" />
      <path
         sodipodi:nodetypes="cccccccccccccccccccccccccccccccccccccccccccccccccc"
         inkscape:connector-curvature="0"
         id="path5648"
         d="m 213.24925,450.94951 23.68433,15.51483 27.83518,112.24007 8.05756,-113.937 9.76673,114.30064 32.47439,-113.08855 21.48681,-10.1816 9.03422,21.09047 -49.32199,104.96749 74.7155,-84.11944 -62.01875,94.30105 85.21474,-77.0893 24.17266,0 0.24417,28.84789 -103.03903,61.33204 99.62067,-28.36304 -91.56311,39.99916 112.68367,-14.30273 18.55679,16.96934 -20.51013,18.66628 -111.82909,-7.03016 94.12688,33.33264 -92.53979,-16.72693 102.30652,43.63546 0.36626,23.39344 -18.31263,9.81798 -107.67822,-73.93784 -11.59799,11.03007 -35.03816,-0.84847 -13.42925,-11.87853 -109.87574,70.66518 -23.19599,-7.27257 5.00545,-23.99951 114.39285,-46.05963 -103.28319,21.21167 93.63855,-35.27198 -109.63158,6.54531 -18.312615,-19.39353 16.603445,-13.69668 115.97994,12.727 -94.98147,-42.18093 99.98692,25.93885 -95.83605,-60.11995 -0.8546,-23.02983 25.14934,0.36363 78.37802,70.54398 -55.79245,-88.24057 69.46588,81.45284 -43.82821,-100.96759 z"
         style="fill:#fcd116;fill-opacity:1;fill-rule:evenodd;stroke:none;stroke-width:0.30000001;stroke-linecap:butt;stroke-linejoin:miter;stroke-miterlimit:4;stroke-dasharray:none;stroke-opacity:1" />
      <path
         id="path5718"
         d="m 270.85459,641.88665 -114.4692,122.39079 86.98657,0 a 28.100613,27.899309 0 0 1 -3.49351,-13.41045 28.100613,27.899309 0 0 1 28.10091,-27.89825 28.100613,27.899309 0 0 1 28.09954,27.89825 28.100613,27.899309 0 0 1 -3.46046,13.41045 l 91.49632,0 -113.26017,-122.39079 z"
         style="fill:#ce1126;fill-opacity:1;fill-rule:evenodd;stroke:none;stroke-width:1px;stroke-linecap:butt;stroke-linejoin:miter;stroke-opacity:1"
         inkscape:connector-curvature="0" />
      <g
         transform="matrix(0.70503598,0,0,0.69998533,7.9037082,261.45146)"
         id="text5740"
         style="font-style:normal;font-variant:normal;font-weight:bold;font-stretch:normal;font-size:46.04990387px;line-height:125%;font-family:'Swis721 BT';-inkscape-font-specification:'Swis721 BT Bold';text-align:start;letter-spacing:3px;word-spacing:0px;writing-mode:lr-tb;text-anchor:start;fill:#ffffff;fill-opacity:1;stroke:none;stroke-width:1px;stroke-linecap:butt;stroke-linejoin:miter;stroke-opacity:1">
        <path
           id="path5949"
           style="font-style:normal;font-variant:normal;font-weight:bold;font-stretch:normal;font-family:'Swis721 BT';-inkscape-font-specification:'Swis721 BT Bold';letter-spacing:3px;fill:#ffffff"
           d="m 323.32719,765.35291 0,-22.01312 -7.68997,0 0,-4.51954 0.49467,0 q 4.20476,0 6.11601,-1.30415 1.93373,-1.30415 2.27101,-4.36215 l 5.14914,0 0,32.19896 -6.34086,0 z"
           inkscape:connector-curvature="0" />
        <path
           id="path5951"
           style="font-style:normal;font-variant:normal;font-weight:bold;font-stretch:normal;font-family:'Swis721 BT';-inkscape-font-specification:'Swis721 BT Bold';letter-spacing:3px;fill:#ffffff"
           d="m 358.751,744.35163 q 0,-2.76569 -1.39409,-4.36215 -1.3716,-1.61894 -3.75504,-1.61894 -2.24853,0 -3.50771,1.55149 -1.23669,1.55148 -1.23669,4.33966 0,2.60829 1.30414,4.06984 1.30415,1.46154 3.66511,1.46154 2.31598,0 3.62013,-1.43906 1.30415,-1.43905 1.30415,-4.00238 z m 0.11243,8.38702 q -1.12427,1.12426 -2.65327,1.6864 -1.529,0.56213 -3.44025,0.56213 -4.7444,0 -7.60003,-2.85563 -2.85564,-2.85564 -2.85564,-7.64501 0,-5.08168 3.10297,-8.20713 3.10298,-3.12546 8.18466,-3.12546 5.89115,0 8.94915,4.06984 3.08048,4.04735 3.08048,11.82727 0,8.36453 -3.28285,12.81662 -3.28286,4.45209 -9.44383,4.45209 -4.24972,0 -6.85802,-2.20356 -2.60829,-2.22604 -2.85563,-6.04854 l 6.49825,0.0225 q 0.22486,1.55149 1.21421,2.31599 0.98935,0.7645 2.78818,0.7645 2.42841,0 3.71007,-2.11362 1.28166,-2.11362 1.46155,-6.31837 z"
           inkscape:connector-curvature="0" />
        <path
           id="path5953"
           style="font-style:normal;font-variant:normal;font-weight:bold;font-stretch:normal;font-family:'Swis721 BT';-inkscape-font-specification:'Swis721 BT Bold';letter-spacing:3px;fill:#ffffff"
           d="m 387.83395,744.35163 q 0,-2.76569 -1.39409,-4.36215 -1.3716,-1.61894 -3.75504,-1.61894 -2.24853,0 -3.50771,1.55149 -1.23669,1.55148 -1.23669,4.33966 0,2.60829 1.30415,4.06984 1.30414,1.46154 3.6651,1.46154 2.31599,0 3.62014,-1.43906 1.30414,-1.43905 1.30414,-4.00238 z m 0.11243,8.38702 q -1.12427,1.12426 -2.65327,1.6864 -1.529,0.56213 -3.44025,0.56213 -4.7444,0 -7.60003,-2.85563 -2.85563,-2.85564 -2.85563,-7.64501 0,-5.08168 3.10297,-8.20713 3.10297,-3.12546 8.18465,-3.12546 5.89115,0 8.94915,4.06984 3.08049,4.04735 3.08049,11.82727 0,8.36453 -3.28286,12.81662 -3.28285,4.45209 -9.44383,4.45209 -4.24972,0 -6.85801,-2.20356 -2.6083,-2.22604 -2.85564,-6.04854 l 6.49826,0.0225 q 0.22485,1.55149 1.2142,2.31599 0.98935,0.7645 2.78818,0.7645 2.42841,0 3.71007,-2.11362 1.28167,-2.11362 1.46155,-6.31837 z"
           inkscape:connector-curvature="0" />
        <path
           id="path5955"
           style="font-style:normal;font-variant:normal;font-weight:bold;font-stretch:normal;font-family:'Swis721 BT';-inkscape-font-specification:'Swis721 BT Bold';letter-spacing:3px;fill:#ffffff"
           d="m 414.0163,753.43569 0,-13.78349 -8.74678,13.78349 8.74678,0 z m -0.13491,11.91722 0,-6.94796 -13.58113,0 0,-5.6663 11.87224,-18.6628 7.98229,0 0,19.20245 3.73256,0 0,5.12665 -3.73256,0 0,6.94796 -6.2734,0 z"
           inkscape:connector-curvature="0" />
      </g>
      <path
         d="M 143.47321,779.87701 A 200.85513,199.41629 0 0 1 83.102833,558.18677 200.85513,199.41629 0 0 1 273.00097,427.06614 200.85513,199.41629 0 0 1 461.32324,560.40833 200.85513,199.41629 0 0 1 398.31516,781.37388 L 271.81271,626.47894 Z"
         sodipodi:end="0.88947574"
         sodipodi:start="2.263949"
         sodipodi:ry="199.41629"
         sodipodi:rx="200.85513"
         sodipodi:cy="626.47894"
         sodipodi:cx="271.81271"
         sodipodi:type="arc"
         id="path5723-7-7-2"
         style="color:#000000;clip-rule:nonzero;display:inline;overflow:visible;visibility:visible;opacity:1;isolation:auto;mix-blend-mode:normal;color-interpolation:sRGB;color-interpolation-filters:linearRGB;solid-color:#000000;solid-opacity:1;fill:none;fill-opacity:1;fill-rule:nonzero;stroke:none;stroke-width:1;stroke-linecap:round;stroke-linejoin:round;stroke-miterlimit:4;stroke-dasharray:none;stroke-dashoffset:0;stroke-opacity:1;color-rendering:auto;image-rendering:auto;shape-rendering:auto;text-rendering:auto;enable-background:accumulate" />
      <g
         transform="matrix(0.70503598,0,0,0.69998533,7.9037082,261.45146)"
         id="text5774"
         style="font-style:normal;font-variant:normal;font-weight:bold;font-stretch:normal;font-size:63.125px;line-height:125%;font-family:'Swis721 BT';-inkscape-font-specification:'Swis721 BT, Bold';text-align:start;letter-spacing:0px;word-spacing:0px;writing-mode:lr-tb;text-anchor:start;fill:#000000;fill-opacity:1;stroke:none;stroke-width:1px;stroke-linecap:butt;stroke-linejoin:miter;stroke-opacity:1">
        <path
           id="path5894"
           style="font-style:normal;font-variant:normal;font-weight:bold;font-stretch:normal;font-size:63.125px;font-family:'Trajan Pro';-inkscape-font-specification:'Trajan Pro Bold'"
           d="m 168.88956,717.46839 c -2.86759,-2.8458 -6.5841,-5.91154 -9.0878,-6.97326 -1.07296,-0.44227 -1.47451,-0.3961 -2.45445,0.14327 -1.95989,1.07875 -6.36607,4.44329 -6.89965,4.98096 -0.35573,0.35845 -0.57737,0.76102 -0.26373,1.07228 0.35845,0.35573 0.62592,0.26543 1.47179,-0.31807 0.9796,-0.62864 2.85158,-1.34997 4.45813,-1.44537 3.83766,-0.28245 6.70184,1.67063 10.68957,5.62806 6.00401,5.95838 8.86697,19.29376 -1.71582,29.95759 -4.31316,4.34619 -9.3887,7.75792 -15.63873,7.51394 -3.75009,-0.16424 -7.28228,-1.71304 -11.1804,-5.58155 -4.12216,-4.09083 -6.41646,-8.7689 -6.33877,-11.80448 0.036,-2.27659 1.00977,-4.42286 2.3434,-5.85631 0.62251,-0.62728 0.88863,-1.07466 0.53018,-1.43039 -0.40326,-0.40019 -0.84859,-0.13067 -1.56038,0.49696 -0.97892,0.80719 -3.37972,3.31598 -4.9367,4.70565 -1.6459,1.47928 -2.31391,1.88356 -2.66963,2.24201 -0.2668,0.26883 -0.3099,0.67073 0.1385,1.20465 1.21079,1.46839 2.24439,3.29454 3.72469,5.20826 1.79429,2.31425 3.27425,4.1387 6.05222,6.89556 6.6761,6.62537 12.7113,9.05735 18.87206,9.30167 8.21435,0.32576 14.40221,-4.02757 17.42586,-7.07439 4.31316,-4.34618 8.12834,-10.52056 7.56139,-18.7315 -0.56457,-7.58605 -4.3833,-14.04376 -10.52173,-20.13554 z"
           inkscape:connector-curvature="0" />
        <path
           id="path5896"
           style="font-style:normal;font-variant:normal;font-weight:bold;font-stretch:normal;font-size:63.125px;font-family:'Trajan Pro';-inkscape-font-specification:'Trajan Pro Bold'"
           d="m 139.86177,681.44536 c -9.02753,-13.25084 -24.15669,-15.16482 -36.10332,-7.02583 -11.946623,8.139 -14.002151,21.37866 -5.152324,34.36865 10.662444,15.6506 26.207904,13.691 35.128744,7.61341 9.23385,-6.29085 16.3273,-19.98383 6.1269,-34.95623 z m -4.10117,-0.41401 c 6.82396,10.01638 2.3034,21.88012 -8.54768,29.27275 -12.99,8.84982 -20.98473,4.29038 -25.072,-1.70902 -5.828797,-8.55566 -3.162203,-20.22568 8.52358,-28.18697 15.07674,-10.27148 22.60819,-3.02857 25.0961,0.62324 z"
           inkscape:connector-curvature="0" />
        <path
           id="path5898"
           style="font-style:normal;font-variant:normal;font-weight:bold;font-stretch:normal;font-size:63.125px;font-family:'Trajan Pro';-inkscape-font-specification:'Trajan Pro Bold'"
           d="m 113.93656,654.11928 c 2.11011,-0.50343 4.58358,-0.94814 5.59124,0.55257 0.52725,0.80898 0.69124,1.2193 0.87865,1.68823 0.23427,0.58617 0.49207,0.89102 0.78515,0.77389 0.52755,-0.21085 0.45737,-0.72664 0.22311,-1.3128 -0.74966,-1.87575 -2.05,-4.61908 -2.49511,-5.7328 -0.42169,-1.05511 -1.30004,-3.76315 -2.28397,-6.22507 -0.3514,-0.87925 -0.67948,-1.35995 -1.20703,-1.14911 -0.29309,0.11714 -0.24633,0.57431 -0.0589,1.04324 0.23427,0.58617 0.50363,1.43024 0.69084,2.57905 0.16379,1.0902 -0.0592,2.06306 -1.17293,2.50817 -0.93787,0.37483 -1.72332,0.62076 -2.82528,0.92521 l -24.078813,6.08839 -0.09371,-0.23447 c 3.576333,-3.80861 9.087524,-10.08999 10.107639,-11.10951 1.360153,-1.35935 8.477834,-9.5744 10.611964,-12.05884 1.38368,-1.64068 2.32175,-2.69539 2.11091,-3.22294 -0.21084,-0.52755 -0.85553,-0.6098 -4.14934,-0.85692 l -31.250223,-2.33013 -0.09371,-0.23447 24.092769,-13.70769 c 1.547574,-0.89042 2.379874,-1.01912 2.637664,-0.71427 0.33984,0.34004 0.6094,0.50422 0.90249,0.38709 0.3517,-0.14056 0.38699,-0.56254 -0.0346,-1.95759 -0.76122,-2.41496 -3.876894,-10.55095 -4.462565,-12.01638 -0.327976,-0.82063 -0.784949,-1.45376 -1.253885,-1.26634 -0.351702,0.14056 -0.246331,0.5743 -0.03549,1.10186 0.304549,0.76202 0.714469,1.95778 0.866295,3.86852 0.175252,1.96935 -1.290371,3.2349 -4.772398,5.23834 l -33.74174,19.67137 c -1.160676,0.66782 -1.606284,1.25379 -1.395443,1.78134 0.210842,0.52755 0.796912,0.63322 1.922198,0.72733 l 39.373453,2.7545 -26.195504,29.02776 c -1.219492,1.37112 -1.372016,1.83995 -1.184601,2.30889 0.187415,0.46893 0.855528,0.60979 1.922297,0.38739 l 40.068583,-9.28381 z"
           inkscape:connector-curvature="0" />
        <path
           id="path5900"
           style="font-style:normal;font-variant:normal;font-weight:bold;font-stretch:normal;font-size:63.125px;font-family:'Trajan Pro';-inkscape-font-specification:'Trajan Pro Bold'"
           d="m 90.488308,590.95357 c 2.16932,-0.008 4.678951,0.12513 5.316732,1.8165 0.328292,0.90811 0.394106,1.34505 0.469322,1.84442 0.09402,0.62421 0.275273,0.97993 0.587377,0.93292 0.561789,-0.0846 0.611415,-0.60279 0.517395,-1.227 -0.300863,-1.99747 -0.939421,-4.96546 -1.118058,-6.15146 -0.169236,-1.12358 -0.405062,-3.96072 -0.799944,-6.5824 -0.14103,-0.93631 -0.35049,-1.4793 -0.912278,-1.39468 -0.312104,0.047 -0.371132,0.50276 -0.295916,1.00213 0.09402,0.62421 0.163226,1.5075 0.08278,2.66868 -0.08985,1.09877 -0.529413,1.99486 -1.71541,2.17349 -0.998734,0.15044 -1.819608,0.21024 -2.961988,0.25463 l -24.833053,0.42089 -0.03761,-0.24969 c 4.352499,-2.88988 11.154046,-7.74456 12.380268,-8.50379 1.634961,-1.01231 10.442603,-7.38206 13.088317,-9.31265 1.722195,-1.2808 2.876593,-2.09305 2.791976,-2.65483 -0.08462,-0.56179 -0.693416,-0.78928 -3.843444,-1.78307 l -29.88935,-9.41447 -0.03761,-0.24969 26.588972,-7.83511 c 1.710178,-0.51294 2.549855,-0.4479 2.731109,-0.0922 0.253076,0.40874 0.477947,0.63022 0.790051,0.58321 0.374526,-0.0564 0.505377,-0.45914 0.413973,-1.91363 -0.188816,-2.52504 -1.361447,-11.15793 -1.596496,-12.71845 -0.131627,-0.87389 -0.431714,-1.59474 -0.931081,-1.51952 -0.374525,0.0564 -0.371132,0.50276 -0.286515,1.06455 0.122226,0.81147 0.247844,2.06929 -0.04129,3.96411 -0.279729,1.95725 -1.995916,2.85411 -5.843815,4.00823 l -37.34601,11.4343 c -1.282633,0.38471 -1.85043,0.85325 -1.765812,1.41504 0.08462,0.56179 0.630995,0.79868 1.704945,1.14761 l 37.700302,11.68518 -32.139281,22.2684 c -1.500718,1.05592 -1.75641,1.47746 -1.681195,1.97683 0.07522,0.49936 0.693416,0.78927 1.782777,0.8167 l 41.129854,0.1248 z"
           inkscape:connector-curvature="0" />
        <path
           id="path5902"
           style="font-style:normal;font-variant:normal;font-weight:bold;font-stretch:normal;font-size:63.125px;font-family:'Trajan Pro';-inkscape-font-specification:'Trajan Pro Bold'"
           d="m 71.278405,520.45331 c 6.122336,0.0983 11.108568,0.17833 13.754411,0.53647 1.827349,0.21874 2.894257,0.61466 3.126459,1.88105 0.117115,0.57008 0.23119,1.32951 0.215992,2.27626 -0.01216,0.7574 0.173139,1.01291 0.488723,1.01798 0.441818,0.007 0.638261,-0.43169 0.651433,-1.25221 0.04053,-2.52467 -0.08499,-6.50407 -0.06168,-7.95576 0.02736,-1.70416 0.280542,-5.67748 0.347415,-9.84319 0.01114,-0.69429 -0.170099,-1.20226 -0.611918,-1.20936 -0.315584,-0.005 -0.510001,0.30748 -0.521146,1.00177 -0.0152,0.94675 -0.163723,2.33329 -0.304142,3.2149 -0.282865,1.88946 -1.426061,2.31304 -3.133256,2.47503 -2.718078,0.2089 -7.704311,0.12885 -13.826647,0.0306 L 60.29548,512.44852 c -9.593764,-0.15401 -11.361036,-0.18238 -13.378749,-0.34104 -2.207064,-0.16169 -3.271945,-0.68385 -3.560172,-2.39307 -0.114075,-0.75943 -0.169086,-1.26538 -0.158954,-1.89655 0.01013,-0.63117 -0.110022,-1.0119 -0.614957,-1.02 -0.378701,-0.006 -0.513041,0.49683 -0.526213,1.31735 -0.0385,2.39844 0.09107,6.12537 0.06574,7.70329 -0.02938,1.83039 -0.282568,5.80372 -0.32107,8.20216 -0.01621,1.00987 0.101916,1.51683 0.480617,1.52291 0.504935,0.008 0.637248,-0.36857 0.64738,-0.99974 0.01216,-0.7574 0.08845,-1.57691 0.288944,-2.26815 0.337876,-1.38351 1.420995,-1.99745 3.568995,-2.08924 2.021766,-0.0938 3.789038,-0.0654 13.382802,0.0886 l 11.108569,0.17833 z"
           inkscape:connector-curvature="0" />
        <path
           id="path5904"
           style="font-style:normal;font-variant:normal;font-weight:bold;font-stretch:normal;font-size:63.125px;font-family:'Trajan Pro';-inkscape-font-specification:'Trajan Pro Bold'"
           d="m 92.613573,486.74622 c 0.436414,-3.31704 0.33426,-6.89594 -1.25677,-10.28872 -2.348661,-4.89317 -6.485918,-6.83822 -10.115885,-7.3158 -5.945637,-0.78225 -10.618118,1.34077 -17.309753,8.16432 l -1.544857,1.57948 c -4.626336,4.67585 -7.006221,5.82712 -9.885161,5.44835 -3.755138,-0.49406 -6.075781,-3.66448 -5.466448,-8.29582 0.535224,-4.06807 2.651586,-5.63603 3.964227,-6.41836 1.800145,-1.10021 3.781471,-1.15788 4.344742,-1.08377 0.751028,0.0988 1.151244,-0.0395 1.208884,-0.47764 0.06587,-0.50068 -0.410109,-0.75431 -1.786993,-0.93547 -4.88168,-0.64227 -6.663727,-1.1314 -7.477341,-1.23845 -0.438099,-0.0576 -0.667027,0.23059 -0.866306,0.77739 -0.65219,1.56959 -1.623884,4.11584 -2.159108,8.18391 -1.144557,8.69941 3.04216,15.10779 9.926581,16.01355 5.069438,0.66698 9.763333,-1.13488 16.051464,-7.31116 l 2.631857,-2.58251 c 4.751508,-4.65938 7.753961,-5.21939 10.820658,-4.81592 3.317039,0.43642 6.772458,3.69247 6.031377,9.32518 -0.510522,3.88031 -2.686153,7.35054 -7.498644,8.11809 -1.105127,0.17295 -2.452363,0.25037 -3.265976,0.14333 -0.500685,-0.0659 -1.07219,-0.0774 -1.146298,0.48587 -0.06587,0.50069 0.597865,0.77902 1.528416,0.96512 0.993136,0.19433 4.715338,0.93873 8.157548,1.39161 1.376885,0.18116 1.714516,0.0346 2.284363,-0.90916 1.543199,-2.53473 2.351838,-5.29345 2.829423,-8.92342 z"
           inkscape:connector-curvature="0" />
        <path
           id="path5906"
           style="font-style:normal;font-variant:normal;font-weight:bold;font-stretch:normal;font-size:63.125px;font-family:'Trajan Pro';-inkscape-font-specification:'Trajan Pro Bold'"
           d="m 99.429343,450.80907 c 0.859997,-3.2332 1.219647,-6.79546 0.07884,-10.36489 -1.698881,-5.15492 -5.551166,-7.61663 -9.089389,-8.55776 -5.795366,-1.54151 -10.702366,-0.038 -18.217111,5.8669 l -1.73542,1.36735 c -5.190033,4.04106 -7.698375,4.87623 -10.504552,4.12981 -3.660231,-0.97358 -5.553209,-4.41649 -4.352455,-8.93078 1.054715,-3.96525 3.355396,-5.24757 4.757865,-5.85432 1.926855,-0.8592 3.899106,-0.6612 4.448141,-0.51516 0.732046,0.19472 1.146748,0.10906 1.260333,-0.31796 0.129811,-0.48803 -0.30954,-0.80086 -1.651625,-1.15784 -4.7583,-1.26566 -6.462507,-1.98024 -7.255557,-2.19118 -0.427027,-0.11358 -0.69117,0.14276 -0.959215,0.65934 -0.848914,1.47251 -2.140461,3.87241 -3.195176,7.83766 -2.255469,8.47954 1.071006,15.37378 7.78143,17.15868 4.941312,1.31434 9.828184,0.13204 16.859419,-5.18292 l 2.942553,-2.22202 c 5.312041,-4.00861 8.361614,-4.17725 11.350802,-3.38216 3.233204,0.86 6.240478,4.53398 4.780102,10.02433 -1.006036,3.78224 -3.610498,6.94335 -8.481763,7.08468 -1.118198,0.0292 -2.464184,-0.0676 -3.257234,-0.27851 -0.488031,-0.12981 -1.053292,-0.21484 -1.19933,0.33419 -0.129811,0.48803 0.492552,0.84953 1.391384,1.15393 0.959835,0.32063 4.55516,1.53823 7.910372,2.43068 1.342085,0.35698 1.695783,0.2551 2.382433,-0.60737 1.856808,-2.31487 3.014023,-4.94646 3.955153,-8.48468 z"
           inkscape:connector-curvature="0" />
        <path
           id="path5908"
           style="font-style:normal;font-variant:normal;font-weight:bold;font-stretch:normal;font-size:63.125px;font-family:'Trajan Pro';-inkscape-font-specification:'Trajan Pro Bold'"
           d="m 90.849747,414.3876 c 5.702315,2.23076 10.346473,4.04756 12.700523,5.30739 1.63582,0.84328 2.49721,1.58696 2.27241,2.85469 -0.0894,0.57507 -0.2478,1.32651 -0.59276,2.20831 -0.27597,0.70544 -0.1916,1.00958 0.10233,1.12457 0.41151,0.16098 0.74885,-0.18153 1.04782,-0.94576 0.9199,-2.35147 2.19238,-6.12403 2.72132,-7.47613 0.62093,-1.58724 2.24614,-5.22181 3.76397,-9.10174 0.25297,-0.64665 0.26059,-1.18594 -0.15092,-1.34692 -0.29393,-0.11499 -0.58528,0.10996 -0.83825,0.75661 -0.34496,0.8818 -0.96848,2.12911 -1.40802,2.90613 -0.92507,1.67162 -2.14421,1.66917 -3.80045,1.2246 -2.61982,-0.75375 -7.263971,-2.57055 -12.966286,-4.8013 l -10.346468,-4.04756 c -8.935586,-3.49561 -10.581615,-4.13954 -12.416796,-4.99304 -2.011541,-0.92248 -2.826936,-1.78373 -2.499938,-3.48596 0.158396,-0.75144 0.283589,-1.24473 0.513564,-1.8326 0.229975,-0.58786 0.250386,-0.98658 -0.219908,-1.17056 -0.35272,-0.13798 -0.654274,0.28632 -0.953241,1.05054 -0.873904,2.2339 -2.054394,5.77131 -2.629331,7.24098 -0.666927,1.70481 -2.292128,5.33939 -3.166032,7.57328 -0.367959,0.94059 -0.434366,1.45688 -0.08164,1.59487 0.470294,0.18398 0.725852,-0.12275 0.955827,-0.71062 0.275969,-0.70544 0.633723,-1.44667 1.063056,-2.02433 0.799878,-1.17832 2.029227,-1.37523 4.073972,-0.71089 1.927171,0.61834 3.5732,1.26227 12.508786,4.75789 l 10.346467,4.04755 z"
           inkscape:connector-curvature="0" />
        <path
           id="path5910"
           style="font-style:normal;font-variant:normal;font-weight:bold;font-stretch:normal;font-size:63.125px;font-family:'Trajan Pro';-inkscape-font-specification:'Trajan Pro Bold'"
           d="m 128.49202,379.61026 c 8.01418,-13.88719 3.16649,-28.34591 -9.35385,-35.5713 -12.52034,-7.22538 -25.338607,-3.32594 -33.195029,10.28788 -9.465568,16.40219 -0.947984,29.55332 8.401266,34.94869 9.677293,5.58469 25.092223,6.02617 34.147613,-9.66527 z m -1.40852,-3.8739 c -6.05796,10.49741 -18.70764,11.57885 -30.079825,5.01606 -13.61382,-7.85643 -12.979656,-17.03804 -9.351188,-23.32554 5.174511,-8.96654 16.844383,-11.63377 29.091363,-4.56614 15.80077,9.1185 12.54828,19.04844 10.33965,22.87562 z"
           inkscape:connector-curvature="0" />
        <path
           id="path5912"
           style="font-style:normal;font-variant:normal;font-weight:bold;font-stretch:normal;font-size:63.125px;font-family:'Trajan Pro';-inkscape-font-specification:'Trajan Pro Bold'"
           d="m 125.06531,320.7082 0.12636,-0.14105 c 1.6515,-0.0461 12.06298,-0.12667 21.73197,-0.70289 9.2233,-0.55171 20.77397,-1.05255 26.24859,-1.4876 0.98051,-0.0539 2.00315,-0.15482 2.46645,-0.67203 0.37907,-0.42317 0.12438,-0.99031 -0.91003,-1.91693 l -29.20556,-27.0942 c -2.59094,-2.40567 -3.24138,-3.66632 -2.4382,-5.31979 0.36437,-0.69059 0.70132,-1.06674 1.12251,-1.53693 0.50542,-0.56422 0.61708,-0.97269 0.33497,-1.2254 -0.37616,-0.33695 -0.84436,0.0911 -1.39191,0.70236 -2.06382,2.30392 -3.52328,4.21699 -3.98659,4.7342 -0.88449,0.98739 -3.04726,3.11794 -5.23744,5.56292 -0.63178,0.70528 -1.04807,1.26461 -0.67192,1.60156 0.28212,0.25271 0.59165,0.19099 1.09707,-0.37323 0.58967,-0.65827 1.60052,-1.78672 2.51442,-2.23929 1.48104,-0.70726 2.75346,-0.33017 5.66373,2.19206 l 21.53263,18.44117 -0.21059,0.2351 c -1.46832,0.12542 -13.92508,0.40784 -19.98644,0.74104 -12.96708,0.75751 -26.89215,1.16535 -28.00882,1.18203 -1.56236,0.0412 -2.55267,-0.0832 -3.01598,0.43401 -0.42119,0.47019 0.11072,1.20091 1.05109,2.04329 l 27.31501,25.23117 c 4.04852,3.71136 5.24359,5.12088 4.52465,6.68032 -0.40159,0.82674 -1.11271,1.7152 -1.66026,2.32644 -0.42119,0.47019 -0.57986,0.83654 -0.29775,1.08925 0.42317,0.37907 0.84926,-0.002 1.39681,-0.61322 2.19018,-2.44498 4.0287,-4.78122 4.40777,-5.20439 0.80026,-0.89336 2.62607,-2.64775 5.3638,-5.70397 0.58966,-0.65827 0.87469,-1.16567 0.49854,-1.50262 -0.28211,-0.25272 -0.62886,-0.0548 -1.09217,0.46236 -0.6739,0.75231 -1.52118,1.60354 -2.51931,2.15015 -1.17151,0.64554 -2.94154,0.1617 -6.69325,-3.02953 L 125.06531,320.7082 Z"
           inkscape:connector-curvature="0" />
        <path
           id="path5914"
           style="font-style:normal;font-variant:normal;font-weight:bold;font-stretch:normal;font-size:63.125px;font-family:'Trajan Pro';-inkscape-font-specification:'Trajan Pro Bold'"
           d="m 221.77402,282.14633 c 13.52201,-8.61605 15.90003,-23.67924 8.13202,-35.87035 -7.76802,-12.19111 -20.93825,-14.65254 -34.19408,-6.2061 -15.97088,10.17644 -14.48994,25.77478 -8.68937,34.87818 6.0041,9.42282 19.47262,16.93373 34.75143,7.19827 z m 0.53985,-4.08651 c -10.22137,6.51292 -21.94058,1.6299 -28.99624,-9.44324 -8.44644,-13.25583 -3.64346,-21.10667 2.47871,-25.00763 8.73074,-5.56312 20.31331,-2.53915 27.91171,9.38578 9.8033,15.38528 2.33236,22.69059 -1.39418,25.06509 z"
           inkscape:connector-curvature="0" />
        <path
           id="path5916"
           style="font-style:normal;font-variant:normal;font-weight:bold;font-stretch:normal;font-size:63.125px;font-family:'Trajan Pro';-inkscape-font-specification:'Trajan Pro Bold'"
           d="m 245.91411,228.31438 0.17719,-0.0668 c 1.48648,0.72105 10.76088,5.45299 19.60517,9.40264 8.43757,3.76576 18.91656,8.65042 23.97443,10.7902 0.89479,0.40455 1.84864,0.78681 2.49831,0.54169 0.53155,-0.20055 0.56724,-0.82124 0.077,-2.12058 L 278.8348,209.34889 c -1.18883,-3.3297 -1.18431,-4.74825 0.29113,-5.84468 0.64188,-0.44459 1.11437,-0.62286 1.70498,-0.8457 0.70873,-0.2674 0.99624,-0.57829 0.86254,-0.93266 -0.17827,-0.47248 -0.79116,-0.30871 -1.55896,-0.019 -2.89398,1.09191 -5.07145,2.11588 -5.72112,2.361 -1.24028,0.46796 -4.14206,1.3604 -7.21323,2.51916 -0.88591,0.33425 -1.5133,0.63844 -1.33503,1.11092 0.1337,0.35437 0.4368,0.44242 1.14553,0.17501 0.82686,-0.31197 2.24432,-0.84678 3.26394,-0.82667 1.6403,0.0558 2.59524,0.9774 4.01361,4.55783 l 10.59604,26.29554 -0.29531,0.11142 c -1.36057,-0.56615 -12.54267,-6.06262 -18.07412,-8.56347 -11.85405,-5.3104 -24.39672,-11.37302 -25.39515,-11.8734 -1.40514,-0.68428 -2.22638,-1.25151 -2.87605,-1.00639 -0.59061,0.22284 -0.45582,1.11654 -0.0101,2.29776 l 12.59361,34.98746 c 1.87963,5.16059 2.28961,6.96249 0.9323,8.01436 -0.73772,0.54822 -1.77853,1.00839 -2.54632,1.29808 -0.59061,0.22283 -0.90041,0.47466 -0.76671,0.82903 0.20055,0.53154 0.75439,0.39005 1.52218,0.10036 3.07117,-1.15876 5.78018,-2.38328 6.31173,-2.58383 1.12216,-0.42339 3.55145,-1.13756 7.39041,-2.58601 0.82686,-0.31197 1.31384,-0.63065 1.13557,-1.10314 -0.1337,-0.35436 -0.53264,-0.33878 -1.18231,-0.0937 -0.94497,0.35654 -2.08942,0.72087 -3.22716,0.74533 -1.3372,0.0322 -2.68437,-1.21365 -4.54063,-5.77583 l -9.94202,-24.38331 z"
           inkscape:connector-curvature="0" />
        <path
           id="path5918"
           style="font-style:normal;font-variant:normal;font-weight:bold;font-stretch:normal;font-size:63.125px;font-family:'Trajan Pro';-inkscape-font-specification:'Trajan Pro Bold'"
           d="m 336.93828,211.13423 c -0.18875,0.0153 -0.38772,-0.0952 -0.41326,-0.40978 l -0.10726,-1.32128 c -0.77636,-9.56354 -0.91937,-11.32524 -0.95698,-13.34884 -0.0529,-2.21234 0.36359,-3.32281 2.03684,-3.77531 0.7448,-0.18712 1.30595,-0.29601 1.8093,-0.33687 0.75501,-0.0613 1.1223,-0.21777 1.08655,-0.6582 -0.0358,-0.44043 -0.48639,-0.53051 -1.36725,-0.459 -2.4538,0.19919 -6.40231,0.70973 -7.91234,0.83231 -1.69879,0.13791 -5.67795,0.27093 -9.07552,0.54674 -0.88085,0.0715 -1.31107,0.2331 -1.27531,0.67352 0.0358,0.44043 0.42347,0.53562 1.11557,0.47944 0.88085,-0.0715 1.95557,-0.0954 2.46913,-0.0104 2.11205,0.27188 2.69711,1.23771 2.99661,3.3667 0.28928,2.00317 0.43229,3.76487 1.20865,13.32841 l 0.89894,11.07357 c 0.4699,5.78846 0.8734,10.75899 0.77333,13.42708 -0.10355,1.84505 -0.30578,3.25479 -1.54371,3.60861 -0.55604,0.17181 -1.30085,0.35894 -2.24462,0.43555 -0.75501,0.0613 -0.99136,0.27048 -0.96582,0.58507 0.0358,0.44042 0.4915,0.59342 1.30943,0.52702 2.51672,-0.2043 6.46524,-0.71483 7.91235,-0.83231 1.76171,-0.14301 5.74086,-0.27604 9.83054,-0.60803 0.75501,-0.0613 1.24303,-0.29091 1.20728,-0.73134 -0.0255,-0.31459 -0.35545,-0.4778 -1.04755,-0.42162 -0.94377,0.0766 -2.33818,0.0632 -3.22925,0.009 -1.90797,-0.0984 -2.39785,-1.452 -2.72961,-3.19838 -0.53422,-2.67994 -0.93772,-7.65046 -1.40762,-13.43892 l -0.44947,-5.53678 c -0.0255,-0.31459 0.15811,-0.39283 0.34686,-0.40816 l 24.03469,-1.9511 c 0.18875,-0.0153 0.38772,0.0952 0.40815,0.34686 l 0.44947,5.53678 c 0.4699,5.78846 0.8734,10.75899 0.77333,13.42708 -0.10355,1.84505 -0.30577,3.25479 -1.5437,3.60861 -0.55605,0.17181 -1.30085,0.35894 -2.24462,0.43555 -0.75502,0.0613 -0.99137,0.27048 -0.96583,0.58507 0.0358,0.44042 0.4915,0.59342 1.37236,0.52192 2.4538,-0.1992 6.40231,-0.70973 7.84943,-0.82721 1.7617,-0.14301 5.74086,-0.27604 9.83053,-0.60803 0.75502,-0.0613 1.24304,-0.29091 1.20729,-0.73133 -0.0255,-0.3146 -0.35546,-0.47781 -1.04755,-0.42163 -0.94377,0.0766 -2.33819,0.0631 -3.22925,0.009 -1.90797,-0.0984 -2.39785,-1.452 -2.72962,-3.19838 -0.53421,-2.67994 -0.93772,-7.65046 -1.40762,-13.43892 l -0.89894,-11.07357 c -0.77635,-9.56354 -0.91936,-11.32524 -0.95697,-13.34884 -0.0529,-2.21234 0.36358,-3.32281 2.03683,-3.77531 0.7448,-0.18712 1.30596,-0.29601 1.8093,-0.33687 0.75502,-0.0613 1.12231,-0.21777 1.08656,-0.6582 -0.0358,-0.44043 -0.4864,-0.53051 -1.36725,-0.459 -2.4538,0.19919 -6.40232,0.70973 -7.91235,0.83231 -1.69879,0.13791 -5.67794,0.27093 -9.07552,0.54674 -0.88085,0.0715 -1.31106,0.2331 -1.27531,0.67352 0.0358,0.44043 0.42348,0.53562 1.11558,0.47944 0.88085,-0.0715 1.95556,-0.0954 2.46912,-0.0104 2.11205,0.27188 2.69712,1.23771 2.99661,3.36671 0.28928,2.00316 0.43229,3.76486 1.20865,13.3284 l 0.10726,1.32128 c 0.0255,0.31459 -0.153,0.45575 -0.34175,0.47107 l -24.03469,1.95111 z"
           inkscape:connector-curvature="0" />
        <path
           id="path5920"
           style="font-style:normal;font-variant:normal;font-weight:bold;font-stretch:normal;font-size:63.125px;font-family:'Trajan Pro';-inkscape-font-specification:'Trajan Pro Bold'"
           d="m 393.57432,219.06365 c -0.45943,6.10587 -0.8336,11.07868 -1.34726,13.69878 -0.3262,1.81125 -0.7844,2.85294 -2.06229,3.01 -0.57599,0.0833 -1.34083,0.15232 -2.28504,0.0813 -0.75536,-0.0568 -1.02136,0.11305 -1.04504,0.42779 -0.0332,0.44063 0.39326,0.66263 1.21158,0.7242 2.51788,0.18945 6.49775,0.299 7.94553,0.40794 1.69957,0.12788 5.65103,0.61512 9.80554,0.92772 0.69241,0.0521 1.2102,-0.0988 1.24335,-0.53948 0.0237,-0.31474 -0.27684,-0.52726 -0.96926,-0.57936 -0.9442,-0.0711 -2.31957,-0.30114 -3.19135,-0.49334 -1.86947,-0.39388 -2.22484,-1.56009 -2.2858,-3.27387 -0.0481,-2.72566 0.32605,-7.69848 0.78548,-13.80435 l 0.8336,-11.07868 c 0.71993,-9.56795 0.85255,-11.33047 1.13001,-13.3353 0.29166,-2.19368 0.87576,-3.22589 2.59901,-3.41274 0.76484,-0.0691 1.27315,-0.0941 1.90262,-0.0468 0.62947,0.0474 1.01663,-0.0501 1.05452,-0.55369 0.0284,-0.37768 -0.46569,-0.54147 -1.284,-0.60304 -2.39199,-0.17998 -6.12007,-0.27059 -7.69375,-0.389 -1.82546,-0.13735 -5.77692,-0.62458 -8.16891,-0.80457 -1.00715,-0.0758 -1.5202,0.0122 -1.54862,0.38991 -0.0379,0.50357 0.33032,0.65789 0.95979,0.70525 0.75537,0.0568 1.56894,0.18136 2.24715,0.4223 1.36115,0.41893 1.91011,1.5364 1.87496,3.68607 -0.0257,2.02378 -0.15829,3.7863 -0.87822,13.35425 l -0.8336,11.07868 z"
           inkscape:connector-curvature="0" />
        <path
           id="path5922"
           style="font-style:normal;font-variant:normal;font-weight:bold;font-stretch:normal;font-size:63.125px;font-family:'Trajan Pro';-inkscape-font-specification:'Trajan Pro Bold'"
           d="m 459.79906,237.4512 c 0.69623,-3.0785 1.25322,-5.5413 1.73253,-7.37448 0.54894,-2.14103 1.40136,-3.04847 3.13337,-2.98035 0.76669,0.0439 1.2116,0.0799 1.70417,0.19125 0.43099,0.0975 0.82825,0.0579 0.9118,-0.31154 0.1114,-0.49256 -0.29174,-0.71317 -1.09215,-0.89419 -2.03181,-0.45952 -5.3368,-1.01281 -7.24547,-1.44448 -1.8471,-0.41774 -5.68424,-1.4797 -8.88588,-2.20379 -0.86198,-0.19494 -1.32082,-0.16928 -1.43222,0.32328 -0.0835,0.36942 0.25803,0.57611 0.81216,0.70143 0.86198,0.19495 1.89474,0.49324 2.35945,0.72778 1.93434,0.8905 2.26568,2.00094 1.85381,4.10825 -0.35617,1.86103 -0.88531,4.20069 -1.58154,7.27919 l -1.30893,5.78758 c -0.23672,1.04669 -0.66402,1.7914 -1.68504,2.01352 -1.63085,0.34308 -3.7858,-0.14428 -5.38662,-0.50632 -12.99128,-2.93811 -19.1845,-14.75857 -16.19069,-27.99613 1.71273,-7.57311 4.97361,-11.68957 9.07599,-13.80358 5.11753,-2.59634 9.66784,-1.82612 13.0542,-1.06026 6.95741,1.57349 11.24248,5.51969 12.64399,7.90767 1.21093,2.086 1.07319,4.12587 0.93763,5.58375 -0.0498,0.50649 0.004,0.84219 0.43468,0.93966 0.49256,0.1114 0.74689,-0.15468 0.96969,-1.1398 1.74058,-7.69625 2.56146,-9.32274 2.71464,-10.00001 0.0975,-0.43099 0.03,-0.70512 -0.69489,-0.93379 -1.40218,-0.38184 -3.47359,-1.23862 -4.71086,-1.77732 -1.1757,-0.52477 -6.42677,-2.48899 -10.6751,-3.44979 -5.17188,-1.16967 -10.74909,-1.97798 -17.46744,0.25631 -6.36873,2.11921 -13.03861,7.8593 -15.26656,17.71051 -3.84321,16.99333 7.90222,27.15711 22.98688,30.56865 4.80246,1.08613 10.98949,1.77348 15.46498,0.5852 0.83632,-0.26389 0.92574,-0.37311 1.3017,-2.0355 l 1.53172,-6.7727 z"
           inkscape:connector-curvature="0" />
        <path
           id="path5924"
           style="font-style:normal;font-variant:normal;font-weight:bold;font-stretch:normal;font-size:63.125px;font-family:'Trajan Pro';-inkscape-font-specification:'Trajan Pro Bold'"
           d="m 493.13864,232.34997 c -0.17224,-0.0787 -0.29198,-0.27229 -0.16075,-0.55935 l 0.55113,-1.20562 c 3.98919,-8.72642 4.72404,-10.33392 5.67869,-12.11857 1.03338,-1.95689 1.93883,-2.72291 3.62014,-2.30136 0.74141,0.20012 1.28436,0.37891 1.74364,0.58886 0.68893,0.31494 1.08588,0.35759 1.26959,-0.0443 0.18372,-0.40187 -0.16567,-0.70041 -0.96942,-1.06783 -2.23901,-1.02354 -5.93462,-2.50472 -7.31248,-3.13459 -1.55008,-0.70861 -5.08822,-2.53425 -8.1884,-3.95146 -0.80375,-0.36743 -1.25811,-0.43632 -1.44182,-0.0344 -0.18372,0.40188 0.10826,0.67417 0.73978,0.96286 0.80375,0.36742 1.75348,0.87099 2.16028,1.19577 1.71084,1.26795 1.75021,2.39648 0.97271,4.40093 -0.725,1.88963 -1.45985,3.49713 -5.44904,12.22355 l -4.61906,10.10428 c -2.4145,5.28178 -4.48783,9.81722 -5.87716,12.09724 -0.99074,1.55994 -1.85517,2.69175 -3.10836,2.3965 -0.56919,-0.12138 -1.31061,-0.3215 -2.17177,-0.71517 -0.68892,-0.31493 -0.9973,-0.24768 -1.12852,0.0394 -0.18372,0.40188 0.13942,0.75782 0.88576,1.099 2.29643,1.04979 5.99204,2.53097 7.31248,3.1346 1.6075,0.73485 5.14564,2.56049 8.87733,4.26639 0.68893,0.31494 1.22695,0.35266 1.41066,-0.0492 0.13122,-0.28706 -0.0771,-0.59051 -0.70861,-0.8792 -0.86116,-0.39367 -2.07171,-1.08587 -2.82297,-1.56812 -1.61734,-1.01698 -1.38442,-2.43749 -0.8218,-4.12372 0.84146,-2.59988 2.91479,-7.13532 5.3293,-12.4171 l 2.30952,-5.05214 c 0.13123,-0.28706 0.3297,-0.26573 0.50194,-0.187 l 21.93087,10.02545 c 0.17223,0.0787 0.29197,0.27229 0.187,0.50194 l -2.30953,5.05214 c -2.41451,5.28178 -4.48784,9.81722 -5.87716,12.09724 -0.99074,1.55993 -1.85518,2.69175 -3.10837,2.3965 -0.56918,-0.12138 -1.3106,-0.3215 -2.17176,-0.71517 -0.68893,-0.31493 -0.99731,-0.24768 -1.12853,0.0394 -0.18371,0.40188 0.13943,0.75782 0.94318,1.12525 2.23901,1.02354 5.93462,2.50472 7.25507,3.10834 1.60749,0.73485 5.14563,2.5605 8.87733,4.2664 0.68892,0.31494 1.22694,0.35266 1.41066,-0.0492 0.13122,-0.28706 -0.0771,-0.59051 -0.70862,-0.8792 -0.86116,-0.39367 -2.0717,-1.08588 -2.82296,-1.56812 -1.61735,-1.01698 -1.38443,-2.43749 -0.82181,-4.12372 0.84147,-2.59988 2.91479,-7.13532 5.3293,-12.4171 l 4.61906,-10.10428 c 3.98918,-8.72642 4.72403,-10.33392 5.67868,-12.11857 1.03339,-1.95689 1.93883,-2.72291 3.62014,-2.30136 0.74142,0.20012 1.28436,0.37891 1.74365,0.58886 0.68892,0.31494 1.08588,0.35759 1.26959,-0.0443 0.18371,-0.40187 -0.16567,-0.70041 -0.96942,-1.06783 -2.23902,-1.02354 -5.93462,-2.50472 -7.31248,-3.1346 -1.55009,-0.7086 -5.08823,-2.53425 -8.1884,-3.95146 -0.80375,-0.36742 -1.25812,-0.43631 -1.44183,-0.0344 -0.18371,0.40188 0.10826,0.67417 0.73978,0.96286 0.80375,0.36742 1.75349,0.87099 2.16028,1.19577 1.71084,1.26795 1.75021,2.39648 0.97272,4.40093 -0.72501,1.88963 -1.45986,3.49713 -5.44905,12.22355 l -0.55113,1.20562 c -0.13123,0.28706 -0.35595,0.32314 -0.52818,0.24441 l -21.93087,-10.02545 z"
           inkscape:connector-curvature="0" />
        <path
           id="path5926"
           style="font-style:normal;font-variant:normal;font-weight:bold;font-stretch:normal;font-size:63.125px;font-family:'Trajan Pro';-inkscape-font-specification:'Trajan Pro Bold'"
           d="m 539.10251,267.01772 c -3.30994,4.77193 -6.15217,8.86957 -7.92257,10.86818 -1.25083,1.36028 -2.30168,2.32151 -3.48297,1.80943 -0.53877,-0.22006 -1.23315,-0.54805 -2.01119,-1.08771 -0.62242,-0.43174 -0.93783,-0.42004 -1.11772,-0.1607 -0.25184,0.36309 0.003,0.77054 0.6776,1.23824 1.03738,0.71956 2.45792,1.55124 3.65091,2.37872 1.28083,0.8116 2.42194,1.6031 2.9925,1.99886 1.55607,1.07932 3.12802,2.2465 5.28643,3.89727 2.19438,1.59891 4.97521,3.68141 8.86538,6.37973 1.97101,1.36715 2.43783,1.69095 3.73633,0.5942 0.9789,-0.85748 3.84033,-4.09675 4.66781,-5.28973 0.35978,-0.51869 0.6476,-0.93364 0.23265,-1.22146 -0.36308,-0.25184 -0.61073,-0.11632 -1.11022,0.38228 -1.83817,1.87478 -3.21612,2.53229 -4.99645,2.2193 -1.78032,-0.31299 -3.95881,-1.82405 -5.3074,-2.75947 -5.29062,-3.66971 -5.58086,-5.02338 -3.20214,-8.67429 0.99148,-1.54018 4.35329,-6.27613 5.57653,-8.03967 l 2.84223,-4.09764 c 0.21586,-0.31122 0.41164,-0.48271 0.67098,-0.30283 1.24486,0.86347 6.3439,4.47712 7.25745,5.26443 1.77524,1.53865 1.96174,2.82037 1.50153,4.03763 -0.3121,0.78223 -0.77981,1.45652 -1.08772,2.01119 -0.17989,0.25934 -0.22006,0.53877 0.14302,0.79062 0.46682,0.3238 0.86258,-0.24676 1.1504,-0.66171 0.25184,-0.36308 1.84655,-2.32991 2.61797,-3.3313 2.04233,-2.50141 2.82545,-3.1874 3.04132,-3.49861 0.21586,-0.31121 0.13221,-0.52288 -0.0753,-0.66679 -0.25934,-0.17989 -0.6467,-0.0645 -1.29761,0.0987 -0.82659,0.19489 -1.71256,-0.18917 -3.02936,-0.94889 -1.26494,-0.72375 -7.22986,-4.86117 -8.37098,-5.65268 -0.31121,-0.21587 -0.21917,-0.45932 0.0327,-0.8224 l 9.10233,-13.12282 c 0.25184,-0.36308 0.46351,-0.44673 0.72286,-0.26685 1.03737,0.71956 6.41165,4.60094 7.22146,5.3163 2.37758,2.11009 2.46454,3.09229 2.18002,4.27778 -0.17238,0.80231 -0.73213,1.72006 -0.98398,2.08314 -0.3238,0.46682 -0.39995,0.79812 -0.0369,1.04996 0.36308,0.25185 0.68268,0.0126 0.91444,-0.21078 0.53547,-0.55047 2.22222,-2.76074 2.63386,-3.24346 1.81058,-2.27803 2.50165,-2.72057 2.7535,-3.08365 0.17989,-0.25934 0.27193,-0.5028 0.0126,-0.68269 -0.25934,-0.17988 -0.67849,-0.24014 -0.97381,-0.36816 -0.4869,-0.18408 -1.38876,-0.65599 -2.44623,-1.23582 -1.02148,-0.63171 -11.34338,-7.79125 -13.00319,-8.94254 -0.72616,-0.50368 -1.88317,-1.38304 -3.19578,-2.37032 -1.29672,-0.89944 -2.76494,-1.99466 -4.1654,-2.96606 -0.77803,-0.53966 -1.21307,-0.68777 -1.46491,-0.32468 -0.25184,0.36308 -0.0126,0.68268 0.55797,1.07843 0.72616,0.50369 1.57196,1.16718 1.91495,1.55874 1.45983,1.55034 1.29914,2.66806 0.17964,4.50356 -1.04754,1.73176 -2.05492,3.18409 -7.52351,11.06815 l -6.33206,9.12892 z"
           inkscape:connector-curvature="0" />
        <path
           id="path5928"
           style="font-style:normal;font-variant:normal;font-weight:bold;font-stretch:normal;font-size:63.125px;font-family:'Trajan Pro';-inkscape-font-specification:'Trajan Pro Bold'"
           d="m 573.33448,292.594 c -4.00102,4.20939 -7.43667,7.82398 -9.49199,9.52821 -1.4442,1.15291 -2.62974,1.94206 -3.71878,1.25529 -0.49876,-0.29989 -1.13479,-0.73025 -1.82111,-1.38259 -0.54905,-0.52187 -0.86253,-0.55857 -1.07998,-0.3298 -0.30442,0.32028 -0.11461,0.76197 0.48019,1.32733 1.83017,1.73957 4.84316,4.34213 5.71249,5.16843 0.68631,0.65233 3.94166,4.0078 6.59541,6.53018 0.5948,0.56536 1.04555,0.73252 1.34997,0.41224 0.21745,-0.22877 0.1649,-0.53999 -0.20113,-0.8879 -0.54906,-0.52188 -1.46867,-1.57015 -2.06801,-2.31399 -1.19867,-1.4877 -0.51643,-2.75523 0.6075,-4.21257 1.59778,-2.13912 5.03343,-5.75371 9.07793,-10.00885 l 0.60885,-0.64056 c 0.26093,-0.27453 0.48517,-0.23557 0.71394,-0.0181 l 3.89364,3.87507 c 0.32028,0.30443 0.55132,0.61112 0.51916,1.10309 -0.0575,1.25167 -0.91011,6.36346 -1.47185,10.61952 -0.78643,5.95847 -1.09177,9.76151 -0.12459,12.6839 0.58076,1.77128 1.50717,3.08728 4.06941,5.52268 l 4.34665,4.13148 c 0.54905,0.52187 0.95631,0.73479 1.30423,0.36875 0.21744,-0.22877 0.16489,-0.53999 -0.20114,-0.8879 -0.36603,-0.34792 -0.73433,-0.78508 -1.15065,-1.35497 -0.55585,-0.7896 -2.12735,-2.89294 -2.16721,-7.98208 -0.003,-5.40263 0.71033,-12.47551 1.509,-21.47053 8.1873,0.64056 12.56295,-1.12256 15.78115,-4.50837 2.91378,-3.06554 3.30157,-7.13857 2.84674,-9.2256 -0.86162,-4.04133 -3.66622,-7.22964 -6.54874,-9.96946 -1.41838,-1.34816 -5.02617,-4.51608 -6.58182,-5.99472 -0.96084,-0.91327 -3.71288,-3.79036 -6.13786,-6.09529 -0.68631,-0.65234 -1.09357,-0.86525 -1.398,-0.54497 -0.30442,0.32028 -0.11687,0.67272 0.38642,1.1511 0.64056,0.60885 1.37489,1.39392 1.65395,1.83334 1.20547,1.75543 0.87567,2.83541 -0.51145,4.47803 -1.30015,1.55112 -2.51785,2.83224 -9.12822,9.78688 l -7.6541,8.05275 z m 22.83819,-13.21572 c 0.34791,-0.36603 0.61337,-0.46207 1.02063,-0.24916 0.58801,0.29763 1.45508,1.03468 2.59893,2.12192 2.69951,2.56586 5.21735,8.52978 -0.95813,15.02688 -3.56612,3.75185 -6.8935,4.59535 -9.22289,4.29727 -1.38893,-0.188 -2.15769,-0.57035 -3.98786,-2.30992 -1.14386,-1.08723 -2.38602,-2.52917 -3.04243,-3.76272 -0.18982,-0.44169 -0.10737,-0.71168 0.37101,-1.21498 l 13.22074,-13.90929 z"
           inkscape:connector-curvature="0" />
        <path
           id="path5930"
           style="font-style:normal;font-variant:normal;font-weight:bold;font-stretch:normal;font-size:63.125px;font-family:'Trajan Pro';-inkscape-font-specification:'Trajan Pro Bold'"
           d="m 620.75113,344.88317 c -4.82564,3.23114 -8.96939,6.00571 -11.348,7.21854 -1.66161,0.8087 -2.99117,1.3191 -3.9034,0.41054 -0.421,-0.40183 -0.94736,-0.96102 -1.47418,-1.74781 -0.42145,-0.62943 -0.71929,-0.73388 -0.98155,-0.55827 -0.36717,0.24585 -0.27868,0.71838 0.17789,1.40026 0.70243,1.04905 1.72048,2.34258 2.52827,3.54899 0.89536,1.22374 1.66802,2.37769 2.05436,2.95467 1.05363,1.57358 2.08993,3.23473 3.49524,5.56043 1.45775,2.29058 3.28451,5.24571 5.9186,9.17965 1.3346,1.9932 1.65069,2.46527 3.26031,1.91929 1.22465,-0.44016 5.0724,-2.40878 6.27881,-3.21656 0.52452,-0.35121 0.94414,-0.63218 0.66317,-1.0518 -0.24585,-0.36717 -0.5259,-0.33159 -1.17312,-0.0502 -2.3964,1.0728 -3.91936,1.18091 -5.46194,0.2386 -1.54258,-0.94232 -3.01767,-3.14532 -3.93082,-4.50909 -3.58236,-5.35016 -3.35751,-6.71622 0.19148,-9.24448 1.486,-1.07097 6.34676,-4.24966 8.13014,-5.44378 l 4.14376,-2.77457 c 0.31471,-0.21073 0.55964,-0.29876 0.73525,-0.0365 0.84291,1.25886 4.26745,6.48679 4.82984,7.55363 1.08968,2.08123 0.79458,3.34238 -0.0789,4.30707 -0.57652,0.61393 -1.2584,1.0705 -1.74781,1.47417 -0.26226,0.1756 -0.40183,0.42099 -0.15598,0.78816 0.31609,0.47207 0.89307,0.0857 1.31269,-0.19523 0.36717,-0.24585 2.57063,-1.49333 3.6548,-2.1433 2.81557,-1.58137 3.79529,-1.9335 4.11001,-2.14423 0.31471,-0.21072 0.31426,-0.43832 0.17377,-0.64813 -0.1756,-0.26227 -0.57835,-0.29647 -1.24382,-0.38267 -0.84062,-0.12086 -1.52479,-0.80229 -2.4726,-1.99091 -0.9127,-1.13616 -4.95163,-7.16821 -5.72429,-8.32216 -0.21073,-0.31472 -0.036,-0.50766 0.33113,-0.7535 l 13.27049,-8.88565 c 0.36717,-0.24585 0.59477,-0.24631 0.77038,0.0159 0.70242,1.04905 4.28524,6.62681 4.77739,7.58875 1.44134,2.83335 1.16312,3.77933 0.46483,4.77868 -0.45383,0.68372 -1.3104,1.33323 -1.67757,1.57908 -0.47207,0.31609 -0.66409,0.5966 -0.41824,0.96377 0.24584,0.36717 0.6308,0.26134 0.92818,0.13819 0.69968,-0.31655 3.07783,-1.75697 3.63748,-2.05573 2.51818,-1.45822 3.32322,-1.61741 3.69038,-1.86326 0.26227,-0.1756 0.43696,-0.36854 0.26135,-0.6308 -0.17561,-0.26226 -0.54369,-0.47162 -0.77175,-0.69876 -0.38587,-0.34938 -1.05272,-1.11837 -1.82492,-2.04473 -0.71976,-0.96148 -7.70887,-11.39954 -8.83274,-13.07802 -0.4917,-0.73433 -1.24703,-1.97586 -2.10773,-3.37475 -0.87803,-1.31132 -1.84409,-2.86756 -2.79236,-4.28378 -0.52682,-0.78679 -0.87757,-1.08371 -1.24474,-0.83787 -0.36717,0.24585 -0.26134,0.63081 0.12499,1.20779 0.49169,0.73433 1.0363,1.66115 1.21236,2.15101 0.79183,1.97678 0.23356,2.95834 -1.47958,4.25737 -1.60824,1.22878 -3.07691,2.21217 -11.0497,7.55058 l -9.23165,6.18133 z"
           inkscape:connector-curvature="0" />
        <path
           id="path5932"
           style="font-style:normal;font-variant:normal;font-weight:bold;font-stretch:normal;font-size:63.125px;font-family:'Trajan Pro';-inkscape-font-specification:'Trajan Pro Bold'"
           d="m 643.70019,381.41238 c -5.31206,2.34716 -9.87349,4.36266 -12.42612,5.14549 -1.7765,0.50891 -3.17434,0.78149 -3.91555,-0.27125 -0.34509,-0.46864 -0.76672,-1.11049 -1.14941,-1.97658 -0.30615,-0.69288 -0.58142,-0.8473 -0.87012,-0.71974 -0.40418,0.17859 -0.39881,0.65931 -0.0671,1.40992 0.51026,1.1548 1.28906,2.605 1.87585,3.93302 0.67005,1.36024 1.23133,2.63051 1.51196,3.26565 0.63782,1.44349 1.35754,3.54092 2.1538,5.81156 0.79627,2.27065 1.66906,4.71451 2.58752,6.79314 4.71984,10.68184 11.47267,14.87537 15.36001,16.3323 4.71987,1.77921 11.61505,2.3902 18.89025,-0.82439 6.87103,-3.03601 10.46433,-7.86732 12.19116,-12.08096 3.80144,-9.20207 -0.45917,-18.8446 -3.64824,-26.06206 -1.53076,-3.46438 -3.31128,-7.02544 -4.10217,-8.81537 -0.71435,-1.61671 -2.14843,-5.33085 -3.5006,-8.39105 -0.38269,-0.8661 -0.67676,-1.21925 -1.08093,-1.04066 -0.40418,0.17859 -0.36659,0.57605 -0.086,1.21119 0.35718,0.80835 0.73315,1.81544 0.82178,2.32838 0.43774,2.084 -0.282,2.95412 -2.19412,3.93703 -1.79665,0.93188 -3.41336,1.64624 -12.18979,5.52416 l -10.16218,4.49022 z m 14.27509,2.31904 c 4.56144,-2.0155 9.58479,-4.2351 11.57345,-5.04479 0.63514,-0.28064 1.00038,-0.23499 1.46095,0.18262 0.43506,0.35987 1.55225,2.4197 2.0625,3.57449 1.98998,4.5037 4.20555,11.39217 1.47162,18.94934 -1.27029,3.52882 -4.65277,8.68106 -11.98571,11.92116 -5.94719,2.62781 -11.71175,3.79466 -16.52024,1.50252 -4.53323,-2.13773 -7.42288,-5.55377 -10.02517,-11.44322 -2.01549,-4.56144 -1.79795,-7.34905 -1.03256,-8.58441 0.43103,-0.74255 2.68959,-1.87854 4.10757,-2.57409 1.07154,-0.54248 5.49199,-2.56469 11.61239,-5.26903 l 7.2752,-3.21459 z"
           inkscape:connector-curvature="0" />
        <path
           id="path5934"
           style="font-style:normal;font-variant:normal;font-weight:bold;font-stretch:normal;font-size:63.125px;font-family:'Trajan Pro';-inkscape-font-specification:'Trajan Pro Bold'"
           d="m 667.81549,436.65514 c -8.93528,1.98503 -12.97515,5.33974 -15.11161,9.11223 -3.06774,5.40199 -1.93838,11.35883 -1.21281,14.62483 0.88984,4.00548 2.55335,8.29172 7.28432,11.83185 5.58678,4.19063 13.00884,3.25308 19.84896,1.73351 l 6.59362,-1.46482 c 9.36665,-2.08085 11.09208,-2.46417 13.09139,-2.779 2.18417,-0.3559 3.34128,-0.0956 4.01902,1.49972 0.28752,0.71209 0.43128,1.06814 0.58187,1.74599 0.16428,0.73947 0.36966,1.08182 0.80102,0.98599 0.43136,-0.0958 0.45878,-0.55456 0.26712,-1.41728 -0.53391,-2.40328 -1.58124,-6.24444 -1.74551,-6.98392 -0.0137,-0.0616 -0.69129,-3.98492 -1.38947,-7.12767 -0.19166,-0.86272 -0.41073,-1.2667 -0.84209,-1.17087 -0.43136,0.0958 -0.47246,0.49295 -0.32188,1.17079 0.15059,0.67785 0.3217,1.73913 0.30797,2.25949 0.0204,2.12938 -0.85604,2.8414 -2.92383,3.4301 -1.94454,0.56132 -3.66998,0.94463 -13.03662,3.02549 l -7.70284,1.71123 c -6.34713,1.41006 -11.93424,2.45728 -16.07643,-0.17903 -3.0125,-1.91731 -4.61447,-5.05328 -5.21683,-7.76467 -0.46545,-2.09518 -0.84869,-4.98458 0.8153,-8.26412 1.79411,-3.56711 5.15608,-6.18925 14.09137,-8.17427 l 8.62717,-1.91658 c 9.36665,-2.08086 11.09208,-2.46418 13.09139,-2.77901 2.18417,-0.3559 3.34128,-0.0956 4.01902,1.49972 0.28752,0.71209 0.43128,1.06814 0.58187,1.74599 0.1369,0.61622 0.34228,0.95858 0.77364,0.86275 0.43136,-0.0958 0.45878,-0.55457 0.25343,-1.47891 -0.49284,-2.21841 -1.54016,-6.05957 -1.86872,-7.53852 -0.4107,-1.84868 -1.08829,-5.77197 -1.81385,-9.03797 -0.20535,-0.92434 -0.42442,-1.32832 -0.85578,-1.23249 -0.43136,0.0958 -0.47247,0.49294 -0.32188,1.17079 0.19166,0.86272 0.36276,1.92399 0.34904,2.44435 0.0204,2.12938 -0.85604,2.8414 -2.92383,3.4301 -1.94455,0.56132 -3.66998,0.94464 -13.03663,3.02549 l -8.99691,1.99872 z"
           inkscape:connector-curvature="0" />
        <path
           id="path5936"
           style="font-style:normal;font-variant:normal;font-weight:bold;font-stretch:normal;font-size:63.125px;font-family:'Trajan Pro';-inkscape-font-specification:'Trajan Pro Bold'"
           d="m 658.22006,519.14306 c 0.12891,4.03794 0.72365,8.8189 1.8137,11.31039 0.47589,1.05848 0.79941,1.30078 1.88206,1.582 2.1653,0.56244 7.67855,1.14432 8.43567,1.12015 0.50474,-0.0161 0.94236,-0.1564 0.92826,-0.59805 -0.0161,-0.50474 -0.27251,-0.62287 -1.28804,-0.77992 -1.14373,-0.21612 -2.99961,-0.97791 -4.23261,-2.01222 -2.98284,-2.43106 -3.72254,-5.81793 -3.90181,-11.4332 -0.26991,-8.45444 6.81047,-20.11193 21.82657,-20.59131 6.12001,-0.19538 12.1521,0.81203 16.52636,5.28285 2.61234,2.69552 4.1152,6.2475 4.29044,11.73658 0.18531,5.80454 -1.36109,10.78017 -3.50287,12.93273 -1.59006,1.62969 -3.77212,2.5204 -5.72599,2.64593 -0.8833,0.0282 -1.38401,0.1705 -1.3679,0.67524 0.0181,0.56784 0.5269,0.67791 1.47531,0.71079 1.26588,0.0859 4.73398,-0.088 6.82007,-0.0283 2.21228,0.0557 2.97543,0.22079 3.48018,0.20468 0.37855,-0.0121 0.68596,-0.27453 0.7269,-0.97056 0.12885,-1.89883 0.63223,-3.93593 0.87115,-6.34353 0.28591,-2.91436 0.46375,-5.25685 0.33887,-9.16861 -0.30012,-9.40083 -3.01519,-15.31408 -7.32434,-19.72383 -5.74554,-5.87966 -13.2328,-6.96693 -17.52311,-6.82996 -6.12001,0.19538 -13.13404,2.06138 -18.36263,8.41771 -4.80104,5.90057 -6.46219,13.21668 -6.18624,21.8604 z"
           inkscape:connector-curvature="0" />
        <path
           id="path5938"
           style="font-style:normal;font-variant:normal;font-weight:bold;font-stretch:normal;font-size:63.125px;font-family:'Trajan Pro';-inkscape-font-specification:'Trajan Pro Bold'"
           d="m 671.66999,567.41846 c -0.0411,0.31294 -0.1909,0.48427 -0.52027,0.56837 l -13.55039,3.31468 c -0.79213,0.21435 -1.29792,-0.2977 -1.36559,-0.75225 0.0196,-0.6341 -0.0728,-0.90088 -0.44828,-0.95017 -0.43811,-0.0575 -0.5367,0.69354 -0.74716,1.81192 -0.78241,4.99061 -1.38214,9.55955 -1.67789,11.81272 -0.30397,2.31576 -0.25273,2.89548 0.24797,2.96121 0.43812,0.0575 0.54178,-0.24722 0.60751,-0.74793 0.0986,-0.75105 0.2844,-1.68166 0.5954,-2.59583 0.48546,-1.27328 1.59994,-2.97332 7.54506,-4.61228 10.03918,-2.7569 36.38889,-9.48483 40.02841,-10.5351 1.52168,-0.43692 2.13426,-0.73851 2.2082,-1.30181 0.0822,-0.62588 -0.55702,-1.09178 -2.27349,-2.08108 L 665.5769,543.50774 c -2.96509,-1.66254 -4.937,-3.13104 -4.93462,-6.05938 0.003,-0.50892 0.0556,-1.39337 0.1295,-1.95666 0.0657,-0.50071 -0.0266,-0.76749 -0.40212,-0.81678 -0.5007,-0.0657 -0.67517,0.29337 -0.78197,1.10702 -0.4272,3.25458 -0.69128,6.72157 -0.78165,7.41004 -0.25468,1.94023 -0.79571,4.60687 -1.0586,6.60969 -0.0904,0.68847 -0.0145,1.08043 0.48622,1.14616 0.37553,0.0493 0.52535,-0.12205 0.62393,-0.8731 l 0.12323,-0.93882 c 0.25468,-1.94024 1.14227,-2.39673 2.26885,-2.24885 0.75106,0.0986 2.2121,0.60869 3.69465,1.43996 l 8.13094,4.50527 c 0.3591,0.17447 0.46784,0.31608 0.42676,0.62902 l -1.83203,13.95715 z m 4.79713,-12.29462 c 0.0329,-0.25035 0.22884,-0.28829 0.47098,-0.19284 l 14.57827,7.77088 c 0.24214,0.0955 0.53865,0.2617 0.514,0.44947 -0.0246,0.18776 -0.3458,0.20927 -0.60437,0.239 l -16.13606,3.61194 c -0.19598,0.0379 -0.37553,-0.0493 -0.33445,-0.36224 l 1.51163,-11.51621 z"
           inkscape:connector-curvature="0" />
        <path
           id="path5940"
           style="font-style:normal;font-variant:normal;font-weight:bold;font-stretch:normal;font-size:63.125px;font-family:'Trajan Pro';-inkscape-font-specification:'Trajan Pro Bold'"
           d="m 666.59398,601.48157 c -5.58237,-1.60133 -10.37592,-2.97639 -12.83736,-4.01082 -1.70744,-0.6868 -2.93792,-1.43379 -2.83252,-2.71698 0.0353,-0.58091 0.12281,-1.34385 0.3839,-2.25402 0.20887,-0.72814 0.0965,-1.02307 -0.20693,-1.11009 -0.42475,-0.12184 -0.72862,0.25068 -0.9549,1.0395 -0.69623,2.42711 -1.61075,6.30203 -2.01109,7.69763 -0.48736,1.69898 -1.76595,5.46947 -2.91473,9.47421 -0.19147,0.66745 -0.14868,1.20509 0.27606,1.32693 0.30339,0.087 0.57246,-0.16414 0.76392,-0.8316 0.26109,-0.91016 0.76537,-2.21027 1.1304,-3.02495 0.76489,-1.75071 2.20424,-1.73185 3.95543,-1.42652 2.69618,0.44506 7.48974,1.82011 13.0721,3.42144 l 24.87793,7.13636 -2.37516,7.5932 c -1.67047,5.36552 -3.8394,6.51646 -5.45184,6.18526 l -0.68486,-0.13078 c -0.92757,-0.20041 -1.26578,-0.16608 -1.40502,0.31934 -0.10444,0.36407 0.22482,0.58986 0.81419,0.82459 1.57763,0.45255 5.71218,1.83558 6.98642,2.20111 0.91017,0.26108 1.29164,0.30484 1.41348,-0.11991 0.0696,-0.24271 0.0875,-0.76294 0.16657,-1.72533 0.13973,-0.94498 0.34062,-2.33211 0.8976,-4.2738 l 6.89268,-24.02844 c 0.57439,-2.00237 1.35717,-4.27332 2.04397,-5.98076 0.5565,-1.48214 1.33734,-1.91486 1.47658,-2.40028 0.10444,-0.36407 -0.20741,-0.65054 -0.94401,-1.05885 -0.45061,-0.2606 -5.64159,-2.9974 -6.61243,-3.27589 -0.66746,-0.19147 -1.00566,-0.15714 -1.1275,0.26761 -0.10444,0.36406 0.0861,0.61572 0.53667,0.87632 0.45061,0.2606 1.09172,0.77286 1.82783,1.64073 1.07382,1.29309 0.95948,2.83639 0.0713,6.39052 l -2.35075,9.11063 -24.87793,-7.13636 z"
           inkscape:connector-curvature="0" />
        <path
           id="path5942"
           style="font-style:normal;font-variant:normal;font-weight:bold;font-stretch:normal;font-size:63.125px;font-family:'Trajan Pro';-inkscape-font-specification:'Trajan Pro Bold'"
           d="m 653.99077,638.14317 c -5.62345,-2.4227 -10.20338,-4.39583 -12.51339,-5.7347 -1.60631,-0.89824 -2.442,-1.67067 -2.17437,-2.93005 0.10884,-0.57172 0.29261,-1.31736 0.66725,-2.18696 0.29971,-0.69569 0.2257,-1.00251 -0.0642,-1.12739 -0.40582,-0.17484 -0.75457,0.15605 -1.07926,0.90971 -0.99905,2.31895 -2.39864,6.04622 -2.97309,7.37962 -0.67436,1.56529 -2.42179,5.1427 -4.07023,8.96896 -0.27474,0.63771 -0.30063,1.17643 0.10519,1.35127 0.28987,0.12488 0.58867,-0.0901 0.86341,-0.72777 0.37465,-0.86961 1.04007,-2.09508 1.50569,-2.85676 0.98118,-1.6393 2.19954,-1.59554 3.83976,-1.09511 2.59277,0.84209 7.1727,2.81522 12.79615,5.23792 l 10.20337,4.39583 c 8.812,3.79639 10.43527,4.49573 12.24047,5.41092 1.97913,0.99011 2.76487,1.8785 2.38038,3.56867 -0.18377,0.74564 -0.32561,1.23441 -0.57537,1.81414 -0.24976,0.57974 -0.28367,0.97753 0.18012,1.17734 0.34784,0.14986 0.6636,-0.26397 0.98829,-1.01763 0.9491,-2.203 2.24878,-5.69838 2.87319,-7.14772 0.72431,-1.68124 2.47174,-5.25866 3.42084,-7.46166 0.39962,-0.92758 0.48348,-1.44132 0.13564,-1.59118 -0.46379,-0.19981 -0.7296,0.0981 -0.97936,0.67782 -0.29972,0.69569 -0.68238,1.42437 -1.13104,1.98715 -0.83935,1.15054 -2.07466,1.30568 -4.09572,0.57243 -1.90511,-0.68329 -3.52838,-1.38263 -12.34038,-5.17902 l -10.20337,-4.39583 z"
           inkscape:connector-curvature="0" />
        <path
           id="path5944"
           style="font-style:normal;font-variant:normal;font-weight:bold;font-stretch:normal;font-size:63.125px;font-family:'Trajan Pro';-inkscape-font-specification:'Trajan Pro Bold'"
           d="m 615.18524,671.62133 c -8.48267,13.60608 -4.13042,28.22158 8.13647,35.86934 12.2669,7.64777 25.21059,4.18732 33.52628,-9.15092 10.01891,-16.07017 1.95434,-29.50387 -7.20566,-35.21464 -9.4814,-5.91116 -24.87233,-6.87758 -34.45709,8.49622 z m 1.27572,3.91964 c 6.4121,-10.28491 19.09127,-10.93474 30.23326,-3.9883 13.33824,8.3157 12.39162,17.47037 8.55104,23.6306 -5.47701,8.78503 -17.23098,11.05311 -29.23004,3.57232 -15.48093,-9.65154 -11.89201,-19.46491 -9.55426,-23.21462 z"
           inkscape:connector-curvature="0" />
        <path
           id="path5946"
           style="font-style:normal;font-variant:normal;font-weight:bold;font-stretch:normal;font-size:63.125px;font-family:'Trajan Pro';-inkscape-font-specification:'Trajan Pro Bold'"
           d="m 616.60363,730.60565 -0.13108,0.13667 c -1.65211,-0.0102 -12.0603,-0.28422 -21.7433,-0.0376 -9.23674,0.23729 -20.79777,0.34446 -26.28403,0.59281 -0.98178,0.0205 -2.00726,0.0865 -2.48791,0.58764 -0.39326,0.41001 -0.15803,0.9855 0.84423,1.94681 l 28.26588,28.07312 c 2.5075,2.49252 3.11464,3.77458 2.25561,5.39975 -0.38767,0.67777 -0.73724,1.04223 -1.1742,1.4978 -0.52435,0.54669 -0.64985,0.95111 -0.37651,1.21329 0.36446,0.34956 0.84698,-0.0623 1.41502,-0.65455 2.14109,-2.2323 3.66486,-4.09456 4.14551,-4.59569 0.91761,-0.9567 3.15167,-3.01235 5.42385,-5.38132 0.65544,-0.68336 1.09053,-1.22818 0.72608,-1.57775 -0.27335,-0.26217 -0.5848,-0.21103 -1.10915,0.33566 -0.61174,0.6378 -1.66044,1.73117 -2.58922,2.15235 -1.50426,0.65641 -2.76311,0.23621 -5.58579,-2.38367 l -20.8921,-19.16381 0.21848,-0.22778 c 1.47174,-0.0753 13.93088,0.0666 20.00008,-0.06 12.98535,-0.31546 26.91624,-0.24882 28.03283,-0.22746 1.56285,0.012 2.54836,0.17008 3.02901,-0.33105 0.43696,-0.45557 -0.0697,-1.20398 -0.9809,-2.0779 L 601.16615,709.6762 c -3.91978,-3.84709 -5.06615,-5.29649 -4.29452,-6.83054 0.42951,-0.81259 1.17048,-1.67631 1.73852,-2.26855 0.43696,-0.45557 0.60802,-0.81631 0.33468,-1.07848 -0.41002,-0.39326 -0.84883,-0.0269 -1.41688,0.5653 -2.27218,2.36897 -4.1892,4.64124 -4.58246,5.05125 -0.83022,0.86559 -2.71472,2.55679 -5.55494,5.518 -0.61174,0.6378 -0.91389,1.1352 -0.54943,1.48477 0.27334,0.26217 0.62663,0.0762 1.10728,-0.42491 0.69913,-0.72891 1.57491,-1.5508 2.59108,-2.0631 1.19281,-0.60527 2.94534,-0.0614 6.58619,3.25573 l 19.47796,17.71998 z"
           inkscape:connector-curvature="0" />
      </g>
      <path
         d="M -152.22514,807.66004 A 218.18156,216.61859 0 0 1 -419.10785,786.28347 L -271.81271,626.47894 Z"
         sodipodi:end="2.3119013"
         sodipodi:start="0.99069301"
         sodipodi:ry="216.61859"
         sodipodi:rx="218.18156"
         sodipodi:cy="626.47894"
         sodipodi:cx="-271.81271"
         sodipodi:type="arc"
         transform="scale(-1,1)"
         id="path5788"
         style="color:#000000;clip-rule:nonzero;display:inline;overflow:visible;visibility:visible;opacity:1;isolation:auto;mix-blend-mode:normal;color-interpolation:sRGB;color-interpolation-filters:linearRGB;solid-color:#000000;solid-opacity:1;fill:none;fill-opacity:1;fill-rule:nonzero;stroke:none;stroke-width:1.07679927;stroke-linecap:round;stroke-linejoin:round;stroke-miterlimit:4;stroke-dasharray:none;stroke-dashoffset:0;stroke-opacity:1;color-rendering:auto;image-rendering:auto;shape-rendering:auto;text-rendering:auto;enable-background:accumulate" />
      <path
         d="m -175.96659,840.35221 a 235.77686,234.08781 0 0 1 -239.27102,-28.07748 l 143.4249,-185.79579 z"
         sodipodi:end="2.2247231"
         sodipodi:start="1.1521632"
         sodipodi:ry="234.08781"
         sodipodi:rx="235.77686"
         sodipodi:cy="626.47894"
         sodipodi:cx="-271.81271"
         sodipodi:type="arc"
         transform="scale(-1,1)"
         id="path5788-1"
         style="color:#000000;clip-rule:nonzero;display:inline;overflow:visible;visibility:visible;opacity:1;isolation:auto;mix-blend-mode:normal;color-interpolation:sRGB;color-interpolation-filters:linearRGB;solid-color:#000000;solid-opacity:1;fill:none;fill-opacity:1;fill-rule:nonzero;stroke:none;stroke-width:1.16363788;stroke-linecap:round;stroke-linejoin:round;stroke-miterlimit:4;stroke-dasharray:none;stroke-dashoffset:0;stroke-opacity:1;color-rendering:auto;image-rendering:auto;shape-rendering:auto;text-rendering:auto;enable-background:accumulate" />
      <g
         transform="matrix(0.70503598,0,0,0.69998533,7.9037082,261.45146)"
         id="text5805"
         style="font-style:normal;font-variant:normal;font-weight:bold;font-stretch:normal;font-size:25px;line-height:125%;font-family:'Swis721 BT';-inkscape-font-specification:'Swis721 BT, Bold';text-align:start;letter-spacing:1px;word-spacing:0px;writing-mode:lr-tb;text-anchor:start;fill:#000000;fill-opacity:1;stroke:none;stroke-width:1px;stroke-linecap:butt;stroke-linejoin:miter;stroke-opacity:1">
        <path
           id="path5853"
           style="letter-spacing:1px"
           d="m 213.43149,775.31745 q -1.54665,2.53118 -1.28093,4.62479 0.27209,2.0832 2.29286,3.31797 2.04161,1.2475 4.02988,0.54547 1.99463,-0.71244 3.54128,-3.24362 1.54665,-2.53118 1.26415,-4.62073 -0.27613,-2.09998 -2.31774,-3.34748 -2.02078,-1.23478 -3.99863,-0.52638 -1.97785,0.70839 -3.53087,3.24998 z m -3.21865,-1.96672 q 2.27223,-3.71865 5.62326,-4.66089 3.3678,-0.9463 6.8052,1.15409 3.4374,2.10038 4.13198,5.52896 0.705,3.43494 -1.56087,7.14317 -2.26588,3.70823 -5.64409,4.64816 -3.36781,0.9463 -6.80521,-1.15409 -3.4374,-2.10039 -4.13198,-5.52896 -0.68417,-3.42222 1.58171,-7.13044 z"
           inkscape:connector-curvature="0" />
        <path
           id="path5855"
           style="letter-spacing:1px"
           d="m 223.99573,792.04246 8.45438,-15.86942 11.07519,5.90028 -1.46933,2.75802 -7.8539,-4.18414 -1.91702,3.59836 6.88429,3.66758 -1.46933,2.75802 -6.88429,-3.66758 -3.5987,6.75501 -3.22129,-1.71613 z"
           inkscape:connector-curvature="0" />
        <path
           id="path5857"
           style="letter-spacing:1px"
           d="m 238.12238,799.43114 7.62581,-16.28379 11.36439,5.32201 -1.32533,2.83004 -8.05899,-3.77407 -1.72913,3.69232 7.06404,3.30814 -1.32532,2.83004 -7.06405,-3.30814 -3.24602,6.93139 -3.3054,-1.54794 z"
           inkscape:connector-curvature="0" />
        <path
           id="path5859"
           style="letter-spacing:1px"
           d="m 252.74074,806.08807 6.97093,-16.57471 3.40946,1.43394 -6.97093,16.57471 -3.40946,-1.43394 z"
           inkscape:connector-curvature="0" />
        <path
           id="path5861"
           style="letter-spacing:1px"
           d="m 277.43198,809.01967 q -1.25194,2.80421 -3.90326,3.75441 -2.63985,0.95441 -5.89375,-0.24175 -3.74657,-1.37727 -4.9726,-4.48113 -1.21458,-3.09966 0.33538,-7.31598 1.58365,-4.30798 4.54564,-5.82027 2.96198,-1.51229 6.9377,-0.0508 3.23099,1.18774 4.51731,3.45539 1.30199,2.26041 0.42814,5.20361 l -3.42576,-1.25934 q 0.30878,-1.5122 -0.36841,-2.60652 -0.67298,-1.10577 -2.28848,-1.69964 -2.29148,-0.84236 -4.02637,0.19761 -1.7349,1.03997 -2.77944,3.88141 -1.01084,2.74977 -0.38248,4.68451 0.63982,1.93895 2.82819,2.74341 1.58112,0.58124 2.8842,0.14986 1.30729,-0.44283 2.16114,-1.8457 l 3.40285,1.25091 z"
           inkscape:connector-curvature="0" />
        <path
           id="path5863"
           style="letter-spacing:1px"
           d="m 279.07279,816.01677 5.18303,-17.21775 12.49544,3.76148 -0.90078,2.99236 -9.00046,-2.70939 -1.10487,3.67031 8.22899,2.47716 -0.88671,2.94561 -8.22899,-2.47716 -1.33358,4.43009 9.42126,2.83607 -0.95709,3.17938 -12.91624,-3.88816 z"
           inkscape:connector-curvature="0" />
        <path
           id="path5865"
           style="letter-spacing:1px"
           d="m 308.31772,814.70028 q -0.60212,2.90456 0.35428,4.78581 0.95888,1.86929 3.27774,2.35 2.34277,0.48566 3.97767,-0.84594 1.63738,-1.34356 2.2395,-4.24811 0.60212,-2.90456 -0.36872,-4.77633 -0.96835,-1.88373 -3.31112,-2.36939 -2.31886,-0.48071 -3.94181,0.85337 -1.62295,1.33408 -2.22754,4.25059 z m -3.69345,-0.76566 q 0.8846,-4.26718 3.72133,-6.28463 2.85117,-2.02693 6.79562,-1.20924 3.94446,0.81769 5.75493,3.81099 1.82242,2.99577 0.9403,7.251 -0.88212,4.25523 -3.74524,6.27968 -2.85116,2.02693 -6.79562,1.20923 -3.94446,-0.81769 -5.75492,-3.81098 -1.79852,-2.99081 -0.9164,-7.24605 z"
           inkscape:connector-curvature="0" />
        <path
           id="path5867"
           style="letter-spacing:1px"
           d="m 323.90513,826.87902 2.59944,-17.79207 12.41701,1.81414 -0.45177,3.09217 -8.80545,-1.28649 -0.58942,4.03432 7.71836,1.12766 -0.45177,3.09218 -7.71836,-1.12767 -1.10648,7.57341 -3.61156,-0.52765 z"
           inkscape:connector-curvature="0" />
        <path
           id="path5869"
           style="letter-spacing:1px"
           d="m 351.50232,830.11364 0.99593,-14.7369 -5.32234,-0.35968 0.21647,-3.20315 14.29844,0.9663 -0.21647,3.20314 -5.28579,-0.35721 -0.99593,14.73689 -3.69031,-0.24939 z"
           inkscape:connector-curvature="0" />
        <path
           id="path5871"
           style="letter-spacing:1px"
           d="m 363.60333,830.85007 0.18542,-17.98 3.72295,0.0384 -0.0691,6.70131 7.42148,0.0765 0.0691,-6.7013 3.72295,0.0384 -0.18543,17.98001 -3.72295,-0.0384 0.0822,-7.97077 -7.42148,-0.0765 -0.0822,7.97077 -3.72294,-0.0384 z"
           inkscape:connector-curvature="0" />
        <path
           id="path5873"
           style="letter-spacing:1px"
           d="m 383.20787,830.87793 -0.88368,-17.95923 13.03355,-0.64131 0.15358,3.12122 -9.38806,0.46194 0.18838,3.82837 8.58336,-0.42234 0.15118,3.07246 -8.58336,0.42234 0.22737,4.62087 9.82697,-0.48353 0.16318,3.3163 -13.47247,0.66291 z"
           inkscape:connector-curvature="0" />
        <path
           id="path5875"
           style="letter-spacing:1px"
           d="m 411.00444,819.04548 3.54567,-0.46985 q 1.44005,-0.19083 2.01333,-0.88249 0.57169,-0.70375 0.39209,-2.05909 -0.16838,-1.27063 -0.89634,-1.83911 -0.72796,-0.56848 -1.99859,-0.4001 l -3.73928,0.49551 0.68312,5.15513 z m 0.40396,3.23424 0.84028,6.34105 -3.66668,0.48589 -2.36208,-17.82514 7.92631,-1.05035 q 2.80749,-0.37203 4.44157,0.90139 1.64458,1.25972 2.01822,4.07931 0.36562,2.75909 -0.85138,4.44726 -1.21861,1.67607 -3.84458,2.02405 l -4.50166,0.59654 z"
           inkscape:connector-curvature="0" />
        <path
           id="path5877"
           style="letter-spacing:1px"
           d="m 427.82726,816.0236 4.26693,-0.82366 q 1.39035,-0.26838 1.92884,-0.95665 0.55048,-0.69058 0.3168,-1.90114 -0.22211,-1.15064 -0.97073,-1.61532 -0.75092,-0.47666 -2.00943,-0.23373 l -4.43473,0.85605 0.90232,4.67445 z m -1.71368,10.63724 -3.408,-17.65504 8.55784,-1.65194 q 2.88857,-0.55759 4.51723,0.40856 1.62865,0.96615 2.11914,3.50713 0.31235,1.61808 -0.16261,2.82868 -0.46298,1.20828 -1.65712,1.84906 1.2293,0.1854 1.87068,0.93186 0.65338,0.74415 1.06771,2.50416 l 0.47449,2.07164 q 0.005,0.024 0.0139,0.0719 0.34136,1.57519 1.05337,1.78585 l 0.10412,0.53936 -3.97928,0.76813 q -0.26349,-0.33454 -0.47548,-0.85308 -0.20231,-0.53283 -0.37204,-1.28331 l -0.40656,-1.84854 q -0.3769,-1.63048 -1.05129,-2.09706 -0.6624,-0.46889 -2.11268,-0.18893 l -3.84743,0.74268 1.32572,6.86784 -3.63169,0.70104 z"
           inkscape:connector-curvature="0" />
        <path
           id="path5879"
           style="letter-spacing:1px"
           d="m 444.6127,822.9268 -4.43214,-17.42616 12.64668,-3.21654 0.77028,3.02858 -9.10939,2.31687 0.9448,3.71474 8.32859,-2.11828 0.75825,2.98126 -8.32859,2.11828 1.14038,4.48372 9.53529,-2.4252 0.81843,3.21787 -13.07258,3.32486 z"
           inkscape:connector-curvature="0" />
        <path
           id="path5881"
           style="letter-spacing:1px"
           d="m 458.89407,813.48938 3.48077,-1.09818 q 0.64232,1.34616 1.81361,1.73183 1.16762,0.37403 2.97204,-0.19526 1.53666,-0.48482 2.14401,-1.27805 0.60735,-0.79322 0.26944,-1.86423 -0.49216,-1.55994 -5.2973,-1.17034 l -0.11212,0.01 q -0.12376,0.0135 -0.38659,0.0324 -2.56341,0.23275 -3.79353,-0.096 -1.09167,-0.29558 -1.87748,-1.12287 -0.78949,-0.83893 -1.21187,-2.17769 -0.78966,-2.5029 0.49127,-4.36625 1.27727,-1.875 4.49029,-2.88871 3.00347,-0.94759 5.13956,-0.0599 2.14773,0.88401 3.05624,3.43902 l -3.38765,1.0688 q -0.48612,-1.21625 -1.55326,-1.59637 -1.06715,-0.38013 -2.66202,0.12305 -1.38532,0.43707 -1.96939,1.22295 -0.57609,0.77057 -0.26023,1.77173 0.42973,1.36204 3.56474,1.11535 0.85038,-0.0635 1.32581,-0.0983 2.02485,-0.11403 2.88929,-0.0924 0.87609,0.018 1.561,0.16032 1.23137,0.25151 2.06008,1.05247 0.82503,0.78931 1.24741,2.12807 0.84476,2.67752 -0.4932,4.72526 -1.34164,2.03611 -4.62451,3.07186 -3.2363,1.02105 -5.54944,0.0996 -2.31313,-0.92143 -3.32697,-3.648 z"
           inkscape:connector-curvature="0" />
        <path
           id="path5883"
           style="letter-spacing:1px"
           d="m 478.28939,812.98254 -6.13628,-16.9015 3.47669,-1.26225 6.13628,16.9015 -3.47669,1.26225 z"
           inkscape:connector-curvature="0" />
        <path
           id="path5885"
           style="letter-spacing:1px"
           d="m 488.43115,805.68865 2.73979,-1.1369 q 2.37899,-0.98719 2.92418,-2.66721 0.55179,-1.69598 -0.60851,-4.49214 -1.15561,-2.78489 -2.69052,-3.68105 -1.5349,-0.89617 -3.6433,-0.0213 l -3.15696,1.31001 4.43532,10.68856 z m -2.10412,4.38865 -6.89159,-16.60785 6.50559,-2.69956 q 3.82218,-1.58604 6.54999,-0.29939 2.73908,1.28197 4.47952,5.47621 0.94508,2.27752 0.96655,4.30392 0.0327,2.02172 -0.84663,3.62896 -0.66469,1.20095 -1.78244,2.07448 -1.12242,0.86225 -3.39994,1.80733 l -5.58105,2.3159 z"
           inkscape:connector-curvature="0" />
        <path
           id="path5887"
           style="letter-spacing:1px"
           d="m 503.9642,802.57823 -7.86095,-16.17159 11.7362,-5.70493 1.36619,2.81054 -8.45358,4.10926 1.67573,3.4473 7.72898,-3.75703 1.34485,2.76662 -7.72899,3.75704 2.02261,4.16092 8.84881,-4.30138 1.45158,2.9862 -12.13143,5.89705 z"
           inkscape:connector-curvature="0" />
        <path
           id="path5889"
           style="letter-spacing:1px"
           d="m 519.48614,794.91367 -8.81332,-15.67292 3.37292,-1.89669 12.41784,7.18984 -6.05504,-10.76782 3.1814,-1.78898 8.81332,15.67291 -3.33037,1.87276 -12.4604,-7.16591 6.05505,10.76782 -3.1814,1.78899 z"
           inkscape:connector-curvature="0" />
        <path
           id="path5891"
           style="letter-spacing:1px"
           d="m 539.57305,783.15682 -7.96633,-12.43807 -4.49209,2.8771 -1.73153,-2.70349 12.06801,-7.72931 1.73153,2.70348 -4.46126,2.85735 7.96633,12.43806 -3.11466,1.99488 z"
           inkscape:connector-curvature="0" />
      </g>
      <g
         transform="matrix(0.70503598,0,0,0.69998533,7.9037082,261.45146)"
         id="text5812"
         style="font-style:normal;font-variant:normal;font-weight:bold;font-stretch:normal;font-size:25px;line-height:125%;font-family:'Swis721 BT';-inkscape-font-specification:'Swis721 BT, Bold';text-align:start;letter-spacing:0px;word-spacing:0px;writing-mode:lr-tb;text-anchor:start;fill:#000000;fill-opacity:1;stroke:none;stroke-width:1px;stroke-linecap:butt;stroke-linejoin:miter;stroke-opacity:1">
        <path
           id="path5820"
           style="letter-spacing:1px"
           d="m 246.20712,820.6901 q -1.12568,2.74441 -0.53132,4.76939 0.599,2.01369 2.79001,2.91238 2.21361,0.90796 4.06539,-0.10049 1.85641,-1.01974 2.98209,-3.76416 1.12568,-2.74442 0.51539,-4.76274 -0.60565,-2.02961 -2.81926,-2.93756 -2.19101,-0.8987 -4.0315,0.11438 -1.84049,1.01308 -2.9708,3.7688 z m -3.48982,-1.43142 q 1.65378,-4.03193 4.81298,-5.49366 3.17512,-1.4684 6.9021,0.0603 3.72699,1.5287 4.95649,4.80374 1.2408,3.27968 -0.40835,7.30031 -1.64914,4.02062 -4.83556,5.48439 -3.17512,1.46839 -6.90211,-0.0603 -3.72699,-1.5287 -4.95649,-4.80375 -1.2182,-3.27041 0.43094,-7.29103 z"
           inkscape:connector-curvature="0" />
        <path
           id="path5822"
           style="letter-spacing:1px"
           d="m 259.28446,835.54183 5.90312,-16.98435 11.8533,4.11976 -1.02594,2.9518 -8.40569,-2.92151 -1.33852,3.85117 7.36795,2.56082 -1.02593,2.9518 -7.36796,-2.56083 -2.51273,7.22959 -3.4476,-1.19825 z"
           inkscape:connector-curvature="0" />
        <path
           id="path5824"
           style="letter-spacing:1px"
           d="m 285.76217,843.97124 3.83448,-14.2641 -5.15158,-1.38485 0.83345,-3.10038 13.83972,3.7204 -0.83345,3.10038 -5.11622,-1.37534 -3.83448,14.2641 -3.57192,-0.96021 z"
           inkscape:connector-curvature="0" />
        <path
           id="path5826"
           style="letter-spacing:1px"
           d="m 297.48887,847.04578 3.73995,-17.58771 3.64172,0.77439 -1.39391,6.5551 7.25955,1.54371 1.39392,-6.55509 3.64172,0.77439 -3.73995,17.58771 -3.64172,-0.77439 1.65797,-7.79686 -7.25956,-1.54372 -1.65797,7.79686 -3.64172,-0.77439 z"
           inkscape:connector-curvature="0" />
        <path
           id="path5828"
           style="letter-spacing:1px"
           d="m 316.69758,850.96475 2.76251,-17.76748 12.89439,2.00485 -0.48011,3.0879 -9.28782,-1.44409 -0.58889,3.7875 8.49173,1.32031 -0.47262,3.03965 -8.49172,-1.32031 -0.71079,4.57154 9.72206,1.5116 -0.51012,3.28089 -13.32862,-2.07236 z"
           inkscape:connector-curvature="0" />
        <path
           id="path5830"
           style="letter-spacing:1px"
           d="m 346.36139,845.054 3.56592,0.27701 q 1.44828,0.1125 2.15274,-0.44497 0.70542,-0.56964 0.8113,-1.93272 0.0993,-1.27789 -0.49471,-1.98519 -0.59397,-0.70731 -1.87186,-0.80657 l -3.76065,-0.29213 -0.40274,5.18457 z m -0.27676,3.2476 -0.49539,6.37727 -3.68762,-0.28645 1.39257,-17.92695 7.97159,0.61923 q 2.82353,0.21933 4.15741,1.80445 1.347,1.57389 1.12672,4.40959 -0.21555,2.77484 -1.75671,4.17336 -1.54022,1.38634 -4.18119,1.18119 l -4.52738,-0.35169 z"
           inkscape:connector-curvature="0" />
        <path
           id="path5832"
           style="letter-spacing:1px"
           d="m 359.55773,855.65864 0.39104,-17.97671 3.72226,0.081 -0.14574,6.70008 7.42012,0.1614 0.14574,-6.70007 3.72226,0.081 -0.39103,17.9767 -3.72227,-0.081 0.17335,-7.9693 -7.42012,-0.16141 -0.17335,7.96931 -3.72226,-0.081 z"
           inkscape:connector-curvature="0" />
        <path
           id="path5834"
           style="letter-spacing:1px"
           d="m 379.2809,855.86743 -0.36849,-17.97718 3.69795,-0.0758 0.36849,17.97718 -3.69795,0.0758 z"
           inkscape:connector-curvature="0" />
        <path
           id="path5836"
           style="letter-spacing:1px"
           d="m 387.82348,855.66897 -1.01706,-17.95217 3.6928,-0.20921 0.82926,14.63718 8.7628,-0.49645 0.18781,3.315 -12.45561,0.70565 z"
           inkscape:connector-curvature="0" />
        <path
           id="path5838"
           style="letter-spacing:1px"
           d="m 403.41253,854.63448 -1.66417,-17.90378 3.68286,-0.34232 1.66417,17.90378 -3.68286,0.34232 z"
           inkscape:connector-curvature="0" />
        <path
           id="path5840"
           style="letter-spacing:1px"
           d="m 414.34044,843.77776 3.54552,-0.47094 q 1.43999,-0.19126 2.01306,-0.8831 0.57147,-0.70393 0.39146,-2.05921 -0.16877,-1.27058 -0.8969,-1.83884 -0.72814,-0.56825 -1.99871,-0.39948 l -3.73914,0.49665 0.68471,5.15492 z m 0.40494,3.23411 0.84222,6.3408 -3.66653,0.48701 -2.36753,-17.82441 7.92599,-1.05278 q 2.80738,-0.37289 4.44185,0.90004 1.64496,1.25921 2.01946,4.07869 0.36646,2.75897 -0.85002,4.44752 -1.21809,1.67644 -3.84396,2.02522 l -4.50148,0.59791 z"
           inkscape:connector-curvature="0" />
        <path
           id="path5842"
           style="letter-spacing:1px"
           d="m 431.33495,841.21002 3.51569,-0.65761 q 1.42787,-0.26708 1.96359,-0.98823 0.53348,-0.73314 0.2821,-2.07702 -0.23566,-1.25989 -0.9928,-1.78888 -0.75714,-0.52899 -2.01703,-0.29332 l -3.70767,0.69352 0.95612,5.11154 z m 0.57526,3.2082 1.17607,6.28744 -3.63567,0.68006 -3.30602,-17.67442 7.8593,-1.47009 q 2.78375,-0.5207 4.4832,0.66408 1.7092,1.17055 2.23214,3.96629 0.51173,2.73576 -0.61384,4.48622 -1.12781,1.73847 -3.73158,2.2255 l -4.4636,0.83492 z"
           inkscape:connector-curvature="0" />
        <path
           id="path5844"
           style="letter-spacing:1px"
           d="m 446.93188,847.92612 -3.99935,-17.53055 3.60608,-0.82267 3.99935,17.53054 -3.60608,0.82268 z"
           inkscape:connector-curvature="0" />
        <path
           id="path5846"
           style="letter-spacing:1px"
           d="m 455.26761,846.04027 -4.73493,-17.34633 3.73305,-1.01899 10.29522,9.99524 -3.25306,-11.91751 3.52109,-0.96113 4.73493,17.34634 -3.68595,1.00613 -10.34232,-9.98239 3.25305,11.91751 -3.52108,0.96113 z"
           inkscape:connector-curvature="0" />
        <path
           id="path5848"
           style="letter-spacing:1px"
           d="m 474.09002,840.73578 -5.68347,-17.0591 12.38029,-4.12467 0.98776,2.96479 -8.91752,2.971 1.21155,3.63649 8.15316,-2.71634 0.97233,2.91846 -8.15316,2.71634 1.46235,4.38928 9.33444,-3.1099 1.04949,3.15008 -12.79722,4.26357 z"
           inkscape:connector-curvature="0" />
        <path
           id="path5850"
           style="letter-spacing:1px"
           d="m 487.67289,830.28531 3.39762,-1.33342 q 0.73278,1.29914 1.92769,1.60389 1.19044,0.29338 2.95175,-0.39786 1.49995,-0.58866 2.05168,-1.42153 0.55174,-0.83287 0.14146,-1.87829 -0.59759,-1.52267 -5.36489,-0.80569 l -0.11119,0.0174 q -0.12255,0.0219 -0.38347,0.0587 -2.54152,0.40733 -3.79122,0.16343 -1.10932,-0.22031 -1.94981,-0.99198 -0.84496,-0.78303 -1.35782,-2.08981 -0.95881,-2.4431 0.19183,-4.38961 1.14618,-1.95788 4.28244,-3.18873 2.93172,-1.15057 5.12346,-0.4109 2.20311,0.73522 3.28405,3.22219 l -3.30671,1.29774 q -0.56808,-1.18019 -1.6587,-1.48653 -1.09062,-0.30633 -2.64739,0.30464 -1.35222,0.53069 -1.88124,1.35464 -0.5221,0.80812 -0.13858,1.78536 0.52178,1.3295 3.63261,0.86921 0.84406,-0.12144 1.316,-0.18863 2.01232,-0.25211 2.87623,-0.28954 0.87527,-0.0419 1.56831,0.0533 1.24567,0.1668 2.12716,0.90927 0.87704,0.7311 1.38989,2.03788 1.02571,2.61354 -0.16923,4.74792 -1.19939,2.123 -4.40383,3.38061 -3.15899,1.23977 -5.52967,0.47853 -2.37068,-0.76125 -3.56843,-3.41219 z"
           inkscape:connector-curvature="0" />
      </g>
    </g>
  </g>
</svg>
